<mxfile host="app.diagrams.net" modified="2021-08-24T08:45:32.801Z" agent="5.0 (X11; Linux x86_64) AppleWebKit/537.36 (KHTML, like Gecko) Chrome/92.0.4515.131 Safari/537.36" etag="edFxO4DGuF5YmC2DwHTV" version="14.9.8" type="github">
  <diagram id="3yXmQ0OtcuFjhZ1W4guh" name="第 1 页">
    <mxGraphModel dx="2858" dy="2339" grid="1" gridSize="10" guides="1" tooltips="1" connect="1" arrows="1" fold="1" page="1" pageScale="1" pageWidth="827" pageHeight="1169" math="0" shadow="0">
      <root>
        <mxCell id="0" />
        <mxCell id="1" parent="0" />
        <mxCell id="mxgNNjMldQ4FTRtb482u-2" value="" style="rounded=0;whiteSpace=wrap;html=1;shadow=1;glass=1;dashed=1;gradientDirection=south;opacity=70;fontFamily=Courier New;" vertex="1" parent="1">
          <mxGeometry x="-336" y="-500" width="1366" height="1010" as="geometry" />
        </mxCell>
        <mxCell id="mxgNNjMldQ4FTRtb482u-3" value="" style="rounded=1;whiteSpace=wrap;html=1;dashed=1;opacity=70;strokeColor=#3474FC;fontFamily=Courier New;shadow=1;glass=1;" vertex="1" parent="1">
          <mxGeometry x="106" y="50" width="360" height="390" as="geometry" />
        </mxCell>
        <mxCell id="mxgNNjMldQ4FTRtb482u-4" value="" style="ellipse;whiteSpace=wrap;html=1;gradientColor=none;gradientDirection=north;fillColor=none;dashed=1;opacity=50;fontFamily=Courier New;shadow=0;sketch=0;" vertex="1" parent="1">
          <mxGeometry x="-296" y="-220" width="300" height="327" as="geometry" />
        </mxCell>
        <mxCell id="mxgNNjMldQ4FTRtb482u-5" value="" style="rounded=1;whiteSpace=wrap;html=1;dashed=1;opacity=70;strokeColor=#3474FC;fontFamily=Courier New;shadow=1;glass=1;" vertex="1" parent="1">
          <mxGeometry x="106" y="-366.5" width="360" height="309" as="geometry" />
        </mxCell>
        <mxCell id="mxgNNjMldQ4FTRtb482u-6" value="" style="edgeStyle=orthogonalEdgeStyle;rounded=0;orthogonalLoop=1;jettySize=auto;html=1;entryX=0;entryY=0.5;entryDx=0;entryDy=0;fontFamily=Courier New;exitX=1;exitY=0.25;exitDx=0;exitDy=0;shadow=1;" edge="1" parent="1" source="mxgNNjMldQ4FTRtb482u-8" target="mxgNNjMldQ4FTRtb482u-5">
          <mxGeometry relative="1" as="geometry">
            <mxPoint x="-86" y="270" as="targetPoint" />
            <Array as="points">
              <mxPoint x="-76" y="-50" />
              <mxPoint x="50" y="-50" />
              <mxPoint x="50" y="-212" />
            </Array>
          </mxGeometry>
        </mxCell>
        <mxCell id="mxgNNjMldQ4FTRtb482u-7" style="edgeStyle=orthogonalEdgeStyle;rounded=0;orthogonalLoop=1;jettySize=auto;html=1;exitX=1;exitY=0.75;exitDx=0;exitDy=0;entryX=0;entryY=0.5;entryDx=0;entryDy=0;startArrow=none;fontFamily=Courier New;shadow=1;" edge="1" parent="1" source="mxgNNjMldQ4FTRtb482u-8" target="mxgNNjMldQ4FTRtb482u-3">
          <mxGeometry relative="1" as="geometry">
            <Array as="points">
              <mxPoint x="-76" y="20" />
              <mxPoint x="50" y="20" />
              <mxPoint x="50" y="245" />
            </Array>
          </mxGeometry>
        </mxCell>
        <mxCell id="mxgNNjMldQ4FTRtb482u-8" value="" style="rounded=1;whiteSpace=wrap;html=1;gradientDirection=south;gradientColor=#3399FF;fontFamily=Courier New;shadow=1;glass=1;" vertex="1" parent="1">
          <mxGeometry x="-196" y="-108" width="120" height="180" as="geometry" />
        </mxCell>
        <mxCell id="mxgNNjMldQ4FTRtb482u-9" value="" style="edgeStyle=orthogonalEdgeStyle;rounded=0;orthogonalLoop=1;jettySize=auto;html=1;exitX=0.5;exitY=1;exitDx=0;exitDy=0;fontFamily=Courier New;entryX=0.5;entryY=0;entryDx=0;entryDy=0;" edge="1" parent="1" source="mxgNNjMldQ4FTRtb482u-15" target="mxgNNjMldQ4FTRtb482u-20">
          <mxGeometry relative="1" as="geometry">
            <mxPoint x="266" y="-229" as="targetPoint" />
          </mxGeometry>
        </mxCell>
        <mxCell id="mxgNNjMldQ4FTRtb482u-10" value="" style="rounded=1;whiteSpace=wrap;html=1;gradientDirection=north;gradientColor=#CCCCCC;fillColor=#FFFFFF;fontFamily=Courier New;glass=1;shadow=1;" vertex="1" parent="1">
          <mxGeometry x="644" y="-190" width="340" height="311" as="geometry" />
        </mxCell>
        <mxCell id="mxgNNjMldQ4FTRtb482u-13" value="" style="edgeStyle=orthogonalEdgeStyle;rounded=0;orthogonalLoop=1;jettySize=auto;html=1;fontFamily=Courier New;" edge="1" parent="1" source="mxgNNjMldQ4FTRtb482u-14" target="mxgNNjMldQ4FTRtb482u-15">
          <mxGeometry relative="1" as="geometry" />
        </mxCell>
        <mxCell id="mxgNNjMldQ4FTRtb482u-14" value="n paticipants" style="rounded=1;whiteSpace=wrap;html=1;fontFamily=Courier New;shadow=1;glass=1;opacity=70;" vertex="1" parent="1">
          <mxGeometry x="181" y="-351.5" width="160" height="60" as="geometry" />
        </mxCell>
        <mxCell id="mxgNNjMldQ4FTRtb482u-15" value="MAST(C^m_n)" style="whiteSpace=wrap;html=1;rounded=1;fontFamily=Courier New;shadow=1;glass=1;opacity=70;" vertex="1" parent="1">
          <mxGeometry x="181" y="-261.5" width="160" height="60" as="geometry" />
        </mxCell>
        <mxCell id="mxgNNjMldQ4FTRtb482u-16" style="edgeStyle=none;rounded=0;orthogonalLoop=1;jettySize=auto;html=1;entryX=0.5;entryY=1;entryDx=0;entryDy=0;fontFamily=Courier New;" edge="1" parent="1" target="mxgNNjMldQ4FTRtb482u-17">
          <mxGeometry relative="1" as="geometry">
            <mxPoint x="804" y="190" as="targetPoint" />
            <mxPoint x="739" y="250" as="sourcePoint" />
          </mxGeometry>
        </mxCell>
        <mxCell id="mxgNNjMldQ4FTRtb482u-17" value="&lt;div class=&quot;lake-content&quot;&gt;&lt;p id=&quot;u96f5ad3a&quot; class=&quot;ne-p&quot; style=&quot;margin: 0 ; padding: 0 ; min-height: 24px&quot;&gt;&lt;span class=&quot;ne-text&quot;&gt;&lt;b&gt;Interface&lt;/b&gt;:&amp;nbsp;&lt;/span&gt;&lt;/p&gt;&lt;p id=&quot;u96f5ad3a&quot; class=&quot;ne-p&quot; style=&quot;margin: 0 ; padding: 0 ; min-height: 24px&quot;&gt;&lt;span class=&quot;ne-text&quot;&gt;&lt;span&gt;Verify and&amp;nbsp;&lt;/span&gt;send transaction&lt;/span&gt;&lt;/p&gt;&lt;/div&gt;" style="whiteSpace=wrap;html=1;rounded=1;fontFamily=Courier New;glass=1;shadow=1;opacity=70;" vertex="1" parent="1">
          <mxGeometry x="664" y="-170" width="150" height="272" as="geometry" />
        </mxCell>
        <mxCell id="mxgNNjMldQ4FTRtb482u-18" style="edgeStyle=orthogonalEdgeStyle;rounded=0;orthogonalLoop=1;jettySize=auto;html=1;exitX=0.5;exitY=1;exitDx=0;exitDy=0;fontFamily=Courier New;" edge="1" parent="1" source="mxgNNjMldQ4FTRtb482u-17" target="mxgNNjMldQ4FTRtb482u-17">
          <mxGeometry relative="1" as="geometry" />
        </mxCell>
        <mxCell id="mxgNNjMldQ4FTRtb482u-19" value="&lt;font color=&quot;#ffffff&quot; style=&quot;font-size: 18px&quot;&gt;&lt;b&gt;Pallet&lt;/b&gt;&lt;/font&gt;" style="rounded=1;whiteSpace=wrap;html=1;gradientDirection=north;fillColor=#000000;fontFamily=Courier New;" vertex="1" parent="1">
          <mxGeometry x="824" y="-170" width="140" height="277" as="geometry" />
        </mxCell>
        <mxCell id="mxgNNjMldQ4FTRtb482u-20" value="&lt;div class=&quot;lake-content&quot;&gt;&lt;p id=&quot;ue9b982ec&quot; class=&quot;ne-p&quot; style=&quot;margin: 0 ; padding: 0 ; min-height: 24px&quot;&gt;&lt;span&gt;Construct a threshold signature address&lt;/span&gt;&lt;br&gt;&lt;/p&gt;&lt;/div&gt;" style="whiteSpace=wrap;html=1;rounded=1;fontFamily=Courier New;shadow=1;glass=1;opacity=70;" vertex="1" parent="1">
          <mxGeometry x="178" y="-154.5" width="167" height="70" as="geometry" />
        </mxCell>
        <mxCell id="mxgNNjMldQ4FTRtb482u-21" value="&lt;div class=&quot;lake-content&quot;&gt;&lt;span class=&quot;ne-text&quot;&gt;Interface 1: Construct a threshold signature address&amp;nbsp;&lt;/span&gt;&lt;/div&gt;" style="shape=step;perimeter=stepPerimeter;whiteSpace=wrap;html=1;fixedSize=1;gradientDirection=east;fontFamily=Courier New;shadow=1;rounded=1;gradientColor=#3399FF;" vertex="1" parent="1">
          <mxGeometry x="106" y="-396.5" width="355" height="30" as="geometry" />
        </mxCell>
        <mxCell id="mxgNNjMldQ4FTRtb482u-22" value="&lt;div class=&quot;lake-content&quot;&gt;&lt;div class=&quot;lake-content&quot;&gt;&lt;span class=&quot;ne-text&quot;&gt;Interface2: Build an aggregated signature transaction&lt;/span&gt;&lt;/div&gt;&lt;/div&gt;" style="shape=step;perimeter=stepPerimeter;whiteSpace=wrap;html=1;fixedSize=1;gradientDirection=east;fontFamily=Courier New;shadow=1;rounded=1;gradientColor=#3399FF;" vertex="1" parent="1">
          <mxGeometry x="106" y="20" width="360" height="30" as="geometry" />
        </mxCell>
        <mxCell id="mxgNNjMldQ4FTRtb482u-23" value="" style="edgeStyle=orthogonalEdgeStyle;rounded=0;orthogonalLoop=1;jettySize=auto;html=1;fontFamily=Courier New;" edge="1" parent="1" source="mxgNNjMldQ4FTRtb482u-24" target="mxgNNjMldQ4FTRtb482u-31">
          <mxGeometry relative="1" as="geometry" />
        </mxCell>
        <mxCell id="mxgNNjMldQ4FTRtb482u-24" value="Aggrevate Signature" style="rounded=1;whiteSpace=wrap;html=1;fontFamily=Courier New;opacity=70;glass=1;shadow=1;" vertex="1" parent="1">
          <mxGeometry x="186" y="243" width="160" height="60" as="geometry" />
        </mxCell>
        <mxCell id="mxgNNjMldQ4FTRtb482u-25" style="edgeStyle=orthogonalEdgeStyle;rounded=0;orthogonalLoop=1;jettySize=auto;html=1;exitX=0.5;exitY=1;exitDx=0;exitDy=0;entryX=0.5;entryY=0;entryDx=0;entryDy=0;fontFamily=Courier New;" edge="1" parent="1" source="mxgNNjMldQ4FTRtb482u-26" target="mxgNNjMldQ4FTRtb482u-24">
          <mxGeometry relative="1" as="geometry" />
        </mxCell>
        <mxCell id="mxgNNjMldQ4FTRtb482u-26" value="Musig2" style="whiteSpace=wrap;html=1;rounded=1;fontFamily=Courier New;shadow=1;glass=1;opacity=70;" vertex="1" parent="1">
          <mxGeometry x="186" y="160" width="160" height="60" as="geometry" />
        </mxCell>
        <mxCell id="mxgNNjMldQ4FTRtb482u-27" style="edgeStyle=orthogonalEdgeStyle;rounded=0;orthogonalLoop=1;jettySize=auto;html=1;exitX=0.5;exitY=1;exitDx=0;exitDy=0;entryX=0.5;entryY=0;entryDx=0;entryDy=0;fontFamily=Courier New;" edge="1" parent="1" source="mxgNNjMldQ4FTRtb482u-28" target="mxgNNjMldQ4FTRtb482u-26">
          <mxGeometry relative="1" as="geometry" />
        </mxCell>
        <mxCell id="mxgNNjMldQ4FTRtb482u-28" value="m paticipants" style="rounded=1;whiteSpace=wrap;html=1;fontFamily=Courier New;opacity=70;glass=1;shadow=1;" vertex="1" parent="1">
          <mxGeometry x="186" y="70" width="160" height="60" as="geometry" />
        </mxCell>
        <mxCell id="mxgNNjMldQ4FTRtb482u-30" style="edgeStyle=orthogonalEdgeStyle;rounded=0;orthogonalLoop=1;jettySize=auto;html=1;exitX=1;exitY=0.5;exitDx=0;exitDy=0;curved=1;fontFamily=Courier New;shadow=1;" edge="1" parent="1" source="mxgNNjMldQ4FTRtb482u-31" target="mxgNNjMldQ4FTRtb482u-45">
          <mxGeometry relative="1" as="geometry">
            <Array as="points">
              <mxPoint x="699" y="360" />
            </Array>
          </mxGeometry>
        </mxCell>
        <mxCell id="mxgNNjMldQ4FTRtb482u-31" value="Constructed Transaction" style="rounded=1;whiteSpace=wrap;html=1;fontFamily=Courier New;opacity=70;shadow=1;glass=1;" vertex="1" parent="1">
          <mxGeometry x="186" y="330" width="160" height="60" as="geometry" />
        </mxCell>
        <mxCell id="mxgNNjMldQ4FTRtb482u-34" value="" style="shape=image;verticalLabelPosition=bottom;labelBackgroundColor=#ffffff;verticalAlign=top;aspect=fixed;imageAspect=0;image=data:image/vnd.microsoft.icon,iVBORw0KGgoAAAANSUhEUgAAAgAAAAIACAYAAAD0eNT6AAAAAXNSR0IArs4c6QAAAERlWElmTU0AKgAAAAgAAYdpAAQAAAABAAAAGgAAAAAAA6ABAAMAAAABAAEAAKACAAQAAAABAAACAKADAAQAAAABAAACAAAAAAAL+LWFAABAAElEQVR4AeydB5xVxfXHz7zdpbOo2LCBqGjsaADBqNgVWzSxxl4TNRaKJYnJ+jdGhF2iRmOJMWosMbZEjdgiiMqyi92InaaABZTelt37/519rO7CllfufffOzG8+n7fvvfvunTnnO3fvnDkzc8YIEwmQQGwE9rws6LpKpFuxSOfaAK866VKEzwFedYF0SelnI52NkS56TOrwwmcIXH+OBNIJn0vwexE+IxspxvnFJsB3fMa56WP4jnPqP+t5OCf9O07C91ojsgrnQhRZhXLS3/VYgO9GavU48vzud/2OVw2uWYprl+DzEpy7WFKyRL8H+Izzl9Thc8rgM96RyRLos6S4SBbj4iWQfGFVmVmIa5lIgARiIID/SyYSIIF8CZx7e1Dy5ifSHQ1gd1Mn66Gh7o7GsTsaxe7IO/3+/ff19Dc0kvpbSb5lW359DR5C34DHPLCa1+RdVn/H72A1D+bLPHCd13drmXfHeabGcr0pPgnEToAGQOxVQAGSTEAb9ilTpUdNIJuggdo0qEu/o6HaBHJvit7yJujpboL30iTr4ZpseHAthGdiDt5nwTiYXf+ektnwNtR/b1cks7bvLXNoKLhW89QnTAI0AMKkybysIjC4LChetVy2WLVKesPd3qu+gUfDjn+KdMOu74FsAKX4f2JVzX4nbIBhj6/xbTZes2CozYahNgu1OQuGwvTiYpla3EFmji8zOpzBRALeEeCDzbsq90vhH10RrFtTI73RkPeGe77+HTf9VqDQG6/NcVzHxZk8JYB7oRYGwUyoPxUGwtQ6I1PxfWoqkE9LSmTqKyPNt56iodoeEKAB4EElu67iXlcGG6AXv31dnWxb39Ab2ar+Pd3Ir+O6/tQvUgLzkftUeBKm6nu9cSDyISYzTplYbr6KtGRmTgIRE6ABEDFgZh8egYG/DjYNVsgPMJt8e0y02x45b48H8vZo7HUyHRMJFJQAjAKduDgFhU7B5/f1PdVBplRea2YVVBAWRgI5EqABkCM4XhYNgSAIzMArpScWmKUbem3kAzTyRn6A927RlMpcSSA8Anio6tLGKbhn38dQwhQsuJxi8Kq8TmYYg4EGJhJICAEaAAmpCB/FOLYsaPfZEtkRE/D6ohe/G27Gvng67oyGvrOPPKiz8wQ0ZsI7MAzewPubqZS8se7m8t7Yi8wK5zWngokkQAMgkdXinlAHDQ86L6qTXWpTshsa+L7QcDc0+jvg3fd18O5VNjXKhkANhg/eg+H7Jt7fwOqENzt0lrexMmFxNpnwXBLIhQANgFyo8ZpWCQwsC9ZbtVD6YqJUX/R2dsPDTRv8Pmj4cYiJBEigVQIG4Y5EPsbD+Q3McXkTsSfeKC6VNyvLzDetXscfSSBLAjQAsgTG05sSKCsLUs8ukx3qVslA/DIQjf0g9Oz7ND2L30iABPIlAA/BR8ijEkZBZVGRTDy4o7xXVobpsEwkkCMBGgA5gvP1MgTPWWfpIhmgDT0YDMSUJv3MKHi+3hDUOzYCMAgW4X+vCgJMhG+tsnNnmYShA122yEQCGRGgAZARJj9Pqp+Rf7lsF6B3X9/gG7wHmI3PyHh+3hDUOukENPLh+xhqq1SDAMZ55aRyeZ8rD5JebfHJRwMgPvaJK1nd+c8skV2xI92+uDH2hYDqzl83cYJSIBIggUwJzMf/8kS8xmHoYNyhXeVNDhtkis7983BfMPlKQHv4g66QHVfVosEPZF809oPBgpHzfL0hqLcPBNQgeAmegnqDYNJoeZceAh+qvXkdaQA0z8XZowOHBdth1tB+cOnvi9dguAvXd1ZZKkYCJNA6ASNz0QiMx2scghWNmzTKaERDJk8I0ABwvKIHXhFsjTj59T18qKq9/I0dV5nqkQAJ5EgAnoEv0DEYj/W641Il8mLlSPNJjlnxMgsI0ACwoJKyEfGIsqDTV0tkcFArh+IfeQiu7Z3N9TyXBEiABBoIwCCYhufI03gfu1EXGfdkmVna8Bvf7SdAA8D+OpQBI4JtEDpkCP5RD4U6+6CX38EBtagCCZBAsgisQIOh8weexjNmbPUYo3EJmCwmQAPAwsobOCboWDcH7nzt5Rs0+kH9/vYWakKRSYAELCag2yOPpXfA3hqkAWBJ3WkvH5vmHIrZ+urWZy/fknqjmCTgAwEYAcuh50toUMbSO2BPjdMASGhd1QfhGSH96+rkaFjZR+OfiuF1E1pXFIsESKApARgEH+PI41hZ8Pik66WKSw2b8knKNxoASakJyIEwu8VLFso+2uCjp/9jjOlvmiDxKAoJkAAJZE/AyGxc9K8iI4936CLjEa54VfaZ8IooCNAAiIJqFnnWj+fPloPQwz8aY/lHoNFfL4vLeSoJkAAJWEMAnoFv8Zx7Ep2cx4s2lWcrh5pl1gjvoKA0AGKo1AMuD7otWCWH4x9B3fuH4L1zDGKwSBIgARKIk8BSPP+eScEY6NhFnuJGRoWvChoABWI+sCxYb9Vi+Qlc+z9Bb38/FFtSoKJZDAmQAAkknUANGqNx8BA8muoqj1SWmW+SLrAL8tEAiLAWDxoedJ4fyJFw65+IXv4hKIqNfoS8mTUJkIATBGpgCDwL78CD2Jjk38+VmyVOaJVAJWgAhFwp594elLz1oRyMm/ckNPxH0r0fMmBmRwIk4BMBHSZ4AhMIH9i8izz7cJlZ6ZPyUetKAyAEwvXb6C6WvWsDOREu/p9yIl8IUJkFCZAACTQioBMI8Xx9RIrlwUM7yUvc1rgRnBw/0gDIEZxeNmBYsDsi8Z2EMLzHo9Hnkr08WPJSEiABEsiYAJYWovF6SIrkgepR5rWMr+OJTQjQAGiCo+0vg4YFPWtFTkOD/zMG52mbF88gARIggSgJwDPwMYZa7y82cvfECjMjyrJcy5sGQAY1igA9HZYuQjQ+kTNw+v642bBbJhMJkAAJkECCCASYL/BfGAR/69RFHsOyQg1PzNQKARoArcBRF3+dyJlo8E/CaZiQykQCJEACJGABgfkmJQ+iq3YXhwhari0aAGuwGTwsWB+hqX6G3v6ZcPHvvMbP/EoCJEACJGAXgXdTMAQ6BnLf+Aoz1y7Ro5WWBgD4HvvPoGjmZDk4qJMz0PDr0r120WJn7iRAAiRAAgUmUIPynoBn4G89+8szDx9nMJ3L7+S1ATBoRLBVTa2chXGj09Dob+L3rUDtSYAESMATAlhFgIlc9xal5M6Jo82nnmi9lpreGQC6Zv/pxXIo3PsXoNHX6HzeMVjrLuABEiABEvCTAFZyI+qgyC1DSuVp32ILeNP46dj+0vSEvl/Azd/Lz3udWpMACZAACTRHAI3hdEwavK19idz18nXm6+bOce2Y8wbAHsODAXXo7aPHfxwqr71rFUh9SIAESIAEQiWwArk9nCqWW6pGmUmh5pywzJw0AAaOCTrWzkYs/jo5H7x3SxhzikMCJEACJGADASNvopH880Zd5YEnywycyG4lpwyAASOCbdDo/wJVdDp6/Ou6VVXUhgRIgARIICYC81Hu3Wgwb60eYz6KSYbQi3XCAOg/LDgYE/qGYmz/QBByQqfQa5oZkgAJkAAJ5EtAow2+UCTyx8pyecYYbE9kcbK2sTz0pqD9NzPr3fzDUAM7WFwHFJ0ESIAESMAyAmg838NrzHq95P6xFxmdN2Bdss4AGFgWrFe7EG5+IxfCzb+xdcQpMAmQAAmQgDME0Ih+ibWEN5t2GB64zsyzSTFrDICBVwRbr6qRS+HqPx2AO9kEmbKSAAmQAAk4T2Apogzeg82I/lg12nxsg7aJNwD2GBHsWVcrw2BhHYXGn7vw2XBXUUYSIAES8JWAkTrMDHgShkB5VYV5JckYEmkAaGz+GZPkGLj5h8HNPyDJACkbCZAACZAACbRAoBrd1ope/eXRJO49kCgDYHBZ0GHZQjkLk/qG49WrBaA8TAIkQAIkQALWEEBDq1EGKzp1kTvHl5nlSRE8EQbAQcODzt8G8nMIM5wT+5Jya1AOEiABEiCBMAlgWOALDA9UdEvJrc+VmyVh5p1LXrEaAAdcHnRbWIPZ/EYuwfj++rkowGtIgARIgARIwCYCMATmwct9Q7di+dML15sFcckeiwHQ/8qgu1kpl9SJ/BINf7e4lGe5JEACJEACJBAbASMLYAzcLCXyxziWEBbUAOg3ItgYDf4wUyc/h/XTJTboLJgESIAESIAEkkLAyBIscbutLiXlk0ebLwolVkEMgL2HBptj1sNlmNV/Nsb4OxRKOZZDAiRAAiRAArYQgDdgOTrHf+0YyPUTxpjPopY7UgPgR1cEvVfWyJVQ6FT0/NtFrQzzJwESIAESIAEHCNSgcb63XTv5wysjzdSo9InEABg0LOi5SuQ3EFp35SuOSnjmSwIkQAIkQAKuEoBHYBU6z/cUG7lmYoWZEbaeoRoAe/0q6LF8hfwaQp7DHn/YVcX8SIAESIAEPCVQgyH0v3RoL79/+Q9mTlgMQjEA6jfoWSRXoNG/EO7+jmEJx3xIgARIgARIgATSBNBgLwtScospkZFhrBrIywDQAD7z6+QSrOMfgcafy/l4l5IACZAACZBAxATQcC9Euzu6c1e5AZEFF+daXE4GwLm3ByVvfyjnord/FV4b5Vo4ryMBEiABEiABEsiNAOYIfIWhgWt23UZuv+M8U5NtLlkZAEEQmAHD5QQ0+tegx79VtoXxfBIgARIgARIggdAJTMVWxFdVjZYHjUGw4QxTxgZA/8uDXYIauQP59s8wb55GAiRAAiRAAiRQKAJGJmPToXMRTOitTIps0wBQd/9bH6LHn96al0v6MqHKc0iABEiABEggBgL1SwdFxvTsKlc9XIag+62kVg0AjdkfrJBHcf0+reTBn0iABEiABEiABBJEAI37y52MHDO+wsxtSawWDYBBI4KtVtXKMxhM2Lqli3mcBEiABEiABEggsQSmFreTgytHmk+ak7BZA2DAr4KN6pbLRFzQu7mLeIwESIAESIAESCD5BNDIT2/fQQY1F0AIGxA1TXteFnStWyFjcZSNf1M0/EYCJEACJEACVhGAF7/XiuUydkBZULqm4GsZAHD734Qlfn3XPJHfSYAESIAESIAE7CMAI2CXYJHcvKbkTYYA9hgaHFkr8u81T+J3EiABEiABEiABuwkUGfnJpArzWIMW3xkAR5QFnb5cJJ9i976NG37kOwmQAAmQAAmQgBsENHLgOkZ6P1dulqhG3w0BfLVQzmfj70YlUwsSIAESIAESWJMA2vgN54tc2HC83gOwuvc/TX9s+IHvJEACJEACJEACjhEwMhebCG2pmwjVewC+WiQ/YePvWCVTHRIgARIgARJYk0Ag6y9bLMfq4XoDAI3/CWuew+8kQAIkQAIkQALuEQjq0m2++dEVwborVsqXULHEPTWpEQmQAAmQAAmQQGMCGPuvRZjgjVMramUAfmDj35gOP5MACZAACZCAowQQF6BouZGBKVMruzuqI9UiARIgARIgARJohkBdneyWwja/uzbzGw+RAAmQAAmQAAm4S6BvCmF/N3JXP2pGAiRAAiRAAiTQDIGN1APQrZkfeIgESIAESIAESMBVAkZK1QOw1g5BrupLvUiABEiABEiABOoJwABgIgESIAESIAES8ItAICYVGMEGgEwkQAIkQAIkQAK+EMBSwFr1AKzyRWHqSQIkQAIkQAIkIIKdAWtTGhGIMEiABEiABEiABDwiEEhtMdSlB8CjOqeq9hEo7SiySXeRjdYRWadz+tWtk0i3Rp+74JwS/De3KxIpxnsJ3tvhvRjvauWvhJm/Cv/pK/Gq0c946edlK0TmY2fwBUtXvzf6/NUCkTnfiMxdaB8zSkwCJNA6AR3+L9ZxgNZP468kQAJRE9DGfOuN8eohsika+03WE+mBl7537pB/6R10sC/HgN9qKKghMBuvOd+KzJonMg27h3w8W+RLbC7ORAIkYB8BE8iqYiwDrLFPdEpMAvYS2BKht7bbTGQbNPZb4bXNJiLrJ3gxrnoSem6Yfq1JffEykU/mpF9qEHyE1wefo1dRt+aZ/E4CJJAwAjAA4BFMmFAUhwScIdAe/2HbbyGycy+RXbZMv5fCfe9K0qGHXXunXw06LccTZcpMkXemi7w9Lf2+CIYCEwmQQKII1BQjEmANvABMJEACIRDAzFrZYXORQT8QGbCtyA/Q09dxeJ9SBww17LZV+qV6B3i+6JBB9ccilR+IvPGJyAoMKzCRAAnESqDeA8B/xVjrgIXbTmC9LiJ7oLFvaPR1gh7T9wTUKOqN+Q36OmEvNP7wELz+adoYUINg5tffn8tPJEACBSMADwCHAApGmwW5Q2ADjNnvv4vIgX1FdoSLXxs5pswItIeHYNB26ZdeMeMrkRfexustkU+/yCwPnkUCJJAnAXj/i/HcWsERgDxB8nIvCHTvKrLfzmj0sYG2juez0Q+n2nWC4VkHpl86VKCGwPN4TYdhwEQCJBANAbT7K3QZIFYCM5EACTRHQNfTD95J5KgBIj/cGmvqdTkdU2QEdIXEOQenX7qq4IkqkbGviyzkJMLImDNjPwlgGeBK039YcC8m6ZziJwJqTQLNE9CGSBv9IT9MB95p/iweLQQBnTMw7l2Rf03CBELMHWAiARLInwA8mP/UOQD0AOTPkjk4QEBn66t7/5iBaRe/Ayo5oYLOGThkt/RLJwyqIfBveAa4tNCJ6qUScREIZLkaAHSuxVUBLDcRBLp0SDf6x2OG+gbdEiEShWiBwBYbiFx0BIYIDoIRUC3yjwnpCIUtnM7DJEACLREwslQjASIKOBMJ+Eegx7oiJ+4tciRc/Z3a+6e/zRp3RH3pksJj90wPD9w3DsGHPrNZI8pOAgUmoAYAxgGWaqAOJhLwhYDOOj8bs84PgLu/iJP6rK52rb8DsBxTX29OFfnLsyKvIdAQEwmQQOsEMAlwQTEa/8Wtn8ZfScANArrJjrqOD8Z4Mht+N+q0sRZ9e4v8+RcIMgQD4LZn0mGIG//OzyRAAk0ILNA4APPpAGgChV8cI7AxXP26zvwwzOj3LSyvY1WZkTq7Y7nmXy4UmfQhDIGxHBrICBpP8o5AnXoAMAQwn3sBeFf3Xihc2hGufqwp/wlm9ZfodFcmrwhoeGZ9TfifyI1Pinw21yv1qSwJtEpA2/7iOhoArULij/YRUPe+LuU79xARxuW3r/7ClnjvHdP7NPzjZZG/Pi+yZHnYJTA/ErCPgCmCB6CoTr7lbkD2VR4lbp5A/z4ilx4lshU2nmEigQYCOvRz8uD0MNCtGBbQOAKc/NxAh+8+EtBJgKb/8GDLoE4wf5aJBOwloEv6hh8tstcO9upAyQtH4COEGR71qMg70wtXJksigSQRQJjzrc2PrgjWXbFSvkmSYJSFBDIlkMIsVg3g83O4+3VtOBMJZEpAPQCPThS55T8YFliR6VU8jwTcIGDay/qpAzrIAqjDhQBu1KlXWmzdQ+Sui9Iufzb+XlV9KMpiEpT8FIGEHrqcnqNQgDITqwgg+NkC/AuI9B8aLIAFgB3OmUgg+QTaYUa/Lus7ZV8u60t+bdkjoW5BXPG4yDeMjGJPpVHSXAksnTzGdK6Pg4bGf36uufA6EigkgT6biPx9qMgZB7DxLyR3H8rSjaDUG6DbPzORgOME1PMv9QZAfSwAx7WlevYT+Nlgkb9dLKJb9TKRQBQEdNnoqNNFfn2cSId2UZTAPEkgfgJw/dd3+hvCo9ADEH+dUIIWCKyPwamyEzFUhSV+TCRQCAJHDRDR0MJX3S/yPjcZKgRyllFYAt97ADAF8NvCls3SSCAzAoMRxOXBEWz8M6PFs8IkoFsP//WXIqfvL6ITBplIwBkCpn7yv6Q9AIwG6Ey9uqKIRvO74LB08BZXdKIe9hHQAELnDxHZFd6A394nsnCZfTpQYhJYkwDm/dV3+uvnAHAS4Jp4+D1OAut2Ebn5PDb+cdYBy25KYNB2IvdcKqKTUJlIwHYCqUC+Uh3qDQAMAcyzXSHK7waBHbdIz/LXHd2YSCBJBHQ76TsRd2LI7kmSirKQQPYEAiNf6lVpAyAlX2SfBa8ggXAJ6AY+t18gsmG3cPNlbiQQFoEOJZiQepLIZceI6DAVEwlYSWC1AVA/BwDDXF/UWqkFhXaFwIUY7z91P1e0oR6uE9AIguoRuPwekeUrXdeW+jlHoK6RB8Ck0l+cU5IKJZ6A9qJ+ewIb/8RXFAVci8BAzAu49RfYcrrzWj/xAAkkmkBx4yGAIsMhgETXlqPCtYc7dfQZIof3c1RBquU8gR0wZ+XOC0U2Xtd5VamgQwRSxY08AF03pQfAobq1QpXSjtiF7eciP9reCnEpJAm0SKDnhjACEC+g98YtnsIfSCBRBIo7plcBfBfeov+w4Btsj0k7NlHV5KYwOsnvpnP5wHSzdv3VauFSkaF/FXlnur8MqLkFBBAEaHKFWUcl/X4ea8BhAAuqznoRe6G3pNHV2FuyviqpwBoESrGPwM30aq1BhV+TRgC9/volgCrXdwZAw7rApAlLedwhoGv878B46Ub0M7lTqdSkCQFdJqjzWo7o3+Qwv5BAcggEzRgAkI6xAJJTRc5JojOm/4wZ0+twxrRzdUuFmhLQlS1XHS9y2n5Nj/MbCSSCwOoVACrLdx4ARAOkAZCI2nFPiIP6ilScye1V3atZatQaAd3L4qIjWjuDv5FA4Qkg9P/aQwCIBUADoPB14XyJ2vPXrXx1UxUmEvCNwMmDRc460DetqW+iCTQ7BEAPQKLrzEbhdMz/+tPY+NtYd5Q5PALnHSLy4z3Cy485kUA+BFLNDQEEjAaYD1NeuwYBne0/5my6/dfAwq+eErjiJyKDd/JUeaqdKAKmUWf/+zkAnASYqEqyWRhd5/8nrPPnhD+ba5Gyh0kghSft708W6ds7zFyZFwlkT6C2SGY2XPWdAWCK5bOGg3wngVwJaIQ/DfLDpX65EuR1rhJoh63XdDLsNj1c1ZB62UCguPP3BsB3kQBV8H7DgsVYDcCFWjbUYgJl1Nj+Gt53514JFI4ikUBCCMxdKHL2n0Rmf5MQgSiGNwTQ4C+uHmO6Nij8nQdAD2BsYHrDD3wngWwI6Nrn605l458NM57rJ4H1SzFEdp7Iul381J9ax0pgRuPSmxgA+KHJj41P5GcSaI3Ar4/jxj6t8eFvJNCYwObri9x4jkin9o2P8jMJRE6gSRvfxABAOODpkRfPApwj8MvDuaWvc5VKhSInsN1mIqNO5zLZyEGzgO8JpJp28psYABgfaGIdfH8VP5FA8wSOGShyyr7N/8ajJEACrRPo30fkV8e2fg5/JYEQCTRp45sYAPQAhIjZg6w00M+wH3ugKFUkgQgJHN5P5CeDIiyAWZNAA4Hg+xUAeqiJAYBorU2sg4Zr+E4CaxLQCUwjTxcpwdImJhIggfwIqCG9U8/88uDVJNAWgaKgaRvfxAAI2nEOQFsA+buIzvj/wykiGvCHiQRIIH8CulfGSITNXo8rA/KHyRxaJtCxFQNg0rXylTGyvOWr+QsJiFyIXc5235okSIAEwiSwAQzqP2AprRrYTCQQAYGag0tkTuN8TeMv+hnBgD5AMKBt1zzO7ySgBAbviJnLZ5BF0gjU1Ip89rXI9K/SLw02swSm/NIV6Zd+XrL6sx5bthKzz9HQtEPwpvYYxtGhnA7tsDYdYcDWQ5iQ+hd6o+rl2XwDkZ54cd16YWr97+MQJ+CpwpTFUrwiMHXyGLNVY43XGsFFMKAZgdAAaAyJn9MENIDJr48njTgJ1OGf830E7f4YdvwMbeyxs/cMNPwaVa6uLjvJVuL8lasQGqzRZdMbfV7zYxeEeVZDYKseIjtgAugOm6c/s8e6Jqn8vp88WKTyA5HXPskvH15NAk0ImKYTAPW3tQyA+pUAeMgwkcCaBMpOFOnWac2j/B41galo5Cd/LFL9kcibn6LBjmmQbvEykfdmpl9PVKW17gAPwrZYz65DQgOwpE3DQNMgyO+OwDCslJ0kctJokYVgzkQCYRDAbTVjzXzWMgD0JLb/a2Li958NFtE1y0zRE1D3/aQP0w2+9gL1e1LT8hqRt6elX3c9n45sp8bAoO3S2992/y7qeFI1SKZcOvTyK0TXvOKeZMpHqSwk0Eygv7UMANGTaAFYWLvRidxnE5HzD40uf+YssgKu+PHvivxnMhp+9PazdecnhaHOL3j5vfRr9OMiu/UWOWBXkf125vbQ2daRMjuyv8gT1dleyfNJoFkC8CE2TWsbACn5SLIcS2yaJb+5REC3ML3mZK73j6pO350u8hQa/effis+1H5VuasSoB0Nfox+DV+AH6YA3AzHFWN3cTG0T0PgAr2PYZ9a8ts/lGSTQGgHM74NfsWlaywDAkN6HK5uew28eEzjrQJEtN/IYQASqf4tZd/+ahN7+ayIzMYHPh1QLY6DBM9BjPZEfD0DvFi8OEbRe+x3bp0MFX3Bb6+fxVxJoiwBiTazlAWjWDsdSwFkYBoDjl8lnAlv3ELn3Um5WEtY9MG+RyN/HiTxWKbKcVraod+mwfiKn7iuyafewKLuZzzUPiTzJoQA3K7cwWs3BEsC12vS1PAAqi7oKMA1grZMLIydLSQKBFEzD32ASkkYoY8qPwNeYxHfvi+le/wpMmmNKE9AliI/DGNIVBfvvInL6/iJqdDKtTeDiI0Qmvi+iRiQTCWRNwKzt/tc8mo851cLJWRfKC6wlcMLeIttvYa34iRD8y/kImoSx76OvFXnoZUz0Y+PfbL3o8MBzb4qcPEbk2n+K6BAJU1MCpVh+O+zopsf4jQSyIPBRc+c27wGAARBwJUBzvLw4tgnGaH9+iBeqRqKkRty7bazIoxNFViFCH1NmBHTS4L/hDfjv2yJnHSRywl6MKdCY3AHwkozdIT2XovFxfiaBtgg0NwFQr2nWA1BnBHGomHwloDOPNSwsU/YEtPE6dmS6x8/GP3t+eoUGOrrxCRgAoxERb615y7nl6cpVI+AF0NDNTCSQFYFUFkMALVkLWRXIk60koMF+9kIvgyk7AhqK95I7Ra68N9mBe7LTKt6zNdTxxXfA9X0X9jmYG68sSSl943UxVIJJk0wkkA0BLLttdgigWQ/AkC4yg7sCZoPXjXM1hOulR7mhS6G00PHre15Eb3VUepJWocr1qRxdPqjegFv+I6KbHvmeTtuPW3H7fg9kqX9Nx84yrblrmjUAysqM7jmC8B1MPhE4ZiA2d9nYJ43z01U35Tm5It0waUhcpugI1GDFgBpaZ95Eb4AOz114eHSsmbNjBIx8Or7M4D9o7dSsAaCnYRUY5wGszcvZI6UdRc7lxL+M6/fhV0XOvlnk0y8yvoQnhkDgw88RN+CP6VUDIWRnbRYH9xXZqae14lPwAhJobUi/RQMAFgCn3xSwkuIu6pyDudNfJnWwbCW2RL4vHdpWe6VMhSewBJMEf4M6uO7h9B4KhZcg/hI1lPJQTNZlIoE2CbQw/q/XtWgAtGY1tFkgT7CKgE4sUvc/U+sEdFte7X0+/2br5/HXwhB4fBKCB90gMh2TBX1MO2yR3nHRR92pcxYEWunMt2gApIroAcgCsdWnarz/Ei4tarUOx76ebmx0ZjpTcgh8OkfkNBgBuq+Cj+k8eO6YSKA1AkV1ghiSzaeWDQCpv4jhgJrn5sxRjcF+2A+dUSd0RXQ2rEbz+90DjN8fOtyQMly2QuTqBzEs83hIGVqUzVY9RA7c1SKBKWqhCQSpYnm3pUJbNABeHWU06vS0li7kcTcInHMQ4/23VJO65EzX9T+CCX9MySfw8Csiv71fRJdm+pTOhRdA9+5gIoFmCExb3ZY381MrcwD0bNxTbzd7FQ86QaDnhiKH7OaEKqEroZP9Lr1TZNw7oWfNDCMk8MwbIpfdLaIbDfmS+H/sS01nr2dbbXiLHoDVRdEAyJ65NVdo7z/V1h1gjTbhCbpwmcj5t4pUNxs7K7xymFM0BDRw0EV3iOieDL6ks/V/mV4AX6o7cz1T0moXpvXHv6EHIHPSdp3ZAzP/dQtWpqYE5i4UOQ/r+9+b2fQ4v9lF4I1P00bcgiV2yZ2rtJutL7LvzrlezescJtBqJ54GgMM135pqJ+7NndbW5PP5PAT3+ROD+6zJxdbvGqnxnFtEvlpgqwbZyX3y4OzO59nuEyg2eXgAqkbLdHiV0CdicolAlw4iRw5wSaP8dfkad/kv4PbXTX2Y3CEwHbEbzoFHZ8637ujUkiYaF2DXLVv6lcd9I4C2e/Gro2Rqa3q36gEwBuGAOBGwNX5W/vaTQSKd2lspeiRCa2Q53XXuSw8aiUgAJjzTOTDqLvlLepvhhIuat3j0AuSN0JkMAvT+V7fhLerUqgGw+qpWxxBazJk/JJJAcZHIcT9KpGixCLUKS/2G/w07X82JpXgWWiAC0+AJuPxu95cI6lbeW2xQIKgsJtEE4AF4py0B2zYAOBGwLYZW/a5BQzboZpXIkQpbhgAyr38SaRHMPCEEJn+M/QMeSYgwEYmhewScsFdEmTNb2wi02Xlv0wBAhNg2M7GNis/yMub/97V/45PcVe57Gn58eqJK5O7/uq3robuL6JbBTH4TKApC8AAEm8r/EBGozm+Ubmi/5UYiu3CSUH1l/uNlkfvHu1Gv1CI7AreOFXnhreyusenszpjky/DANtVYJLK2GgK4ocQ2PQCVQ80ynMyQKA3ELH4/aoDFwocourqCb3gixAyZlVUEAkxtvvofIu/OsErsrIT98R5Znc6T3SPQagjgBnXbNABWn8hhgAZilr6XYPLfEG76I98uTm/sU0eflqV3cjhir6jB5M+73F32uVNPkd4bh8OKudhHAFNBMmqzMzIAEGIyo8zsw+SPxIN3Elmnsz/6tqSp7hqn0f6YSECNQd3sydXNg+gF8PgeN5LRBtkZGQDoLVV7jNIJ1en+T4/5T/zAieqkEiER0GiBru72OASTAdXzx+QfAQxzYbpr2ykjA6BbSb01oUGBmCwk0L2ryA+3tlDwEEXWB/0tT4eYIbNyhsCdz4loPAjXUmknkYHbuaYV9cmAQLC6zW7z1IwMgBeuNwuwvvT9NnPjCYkkoJv++Lzrn+4K96u/u/mQT+QNZ5lQC5aKVDk6zZmrASy7GUMQF+P/H2ibnUlWGRkAmhG6/xm5FDIplOcUlsABMAB8TqMeFZmFjX6YSKAlAq6uCNDIgO0RzIXJIwIm8yH7jA0AeABoAFh4D21Q6vfaf13yN/Z1CyuOIheUgO4X4GLSPT8G/cBFzahTSwQyHf/X6zM2AIo4EbAl3ok+ru5/DQ/qY9LZ3eWP+6g5dc6WQInDveQDEP6byR8CWLWX8aT9jA2A9qXyLtoRDQrEZBGBA/taJGzIomq0P90EhokE2iKwPjxlrqa9tscwQImr2lGvxgTQ2Vu+S5+2QwA3XJOxATC+zKxCSGA6UxvIWfC+XheRHbewQNAIRJy3SERndzORQCYEduudyVl2nqP7AgzoY6fslDprAm/ecZ5BmKvMUsYGgGYHDwDnAWTGNRFn7bGtv+7/m7DRz5LliagGCpFwAhutI7LbVgkXMk/xuBwwT4CWXJ7N+L+qlJUBkG3mljBzVkxfJ/+8PY0T/5y9qSNQ7LT9RIqLIsg4QVkOYjyABNVGdKJgCCDj8X+VIisDoF0JPQDRVV24OevEvwHwAPiYRj/mo9bUORcC2jD+dM9crrTrmh7rifTa0C6ZKW32BLJto7MyAF653sxEw/JF9mLxikIT0LH/bogE5lsa/y62rpztm9bUNxcCGh3z2lNzudLOazgMYGe9ZSy1kbmvjDRTMz4fJ2ZlANRnnGGM4WyE4LnhE/D1n/3uF8Nn6VqO6u7WPeNdd3u3VG9FeOr9bLDITeeCA9bJ+5I4DOB2TZsgO/e/0sh69atJSVVQJ0e5jdJ+7Xx0/2vQnykz7a+7MDTYqofI9puL9ITbt+cG6Xf1CHVCw984MlwNYuAvRahkXTXx+VyRz74Wmf4V9hKdjncHl1Bqr3/40X5uldsXEx11cyCtcyb3CCBa76RstcraAKgL5NVsC+H5hSWgD/gfbFbYMpNQ2j0e9/67dhTRLZ91udcPtxHRJaCZJG0Q1DDQV++Nml4xf4nIW3Aojv+fyAS8Flu8qmLjdUUuOVJkv52b6ujTt3Z4Lmy/BYw7TJJlco8APHoTstUqawNg/Z5SNXe6oM8gHjnPssUa7/n6T+6be/f9z0WqHd3QpaW7STd42gMN/uH9RPbeUUQf8GGmdTqnjQo1LLTXOBHbgT2OPkYltlTGiiArkgbAOWVfkdP2b+r5sEL4CITcpRcNgAiwJiHLFe07Zz9JP+tHxtiLzIr+w4IqPAD2ToLWlGFtAjv3WvuY60fu/q/rGn6vnxp3h+wmcsYBIpuv//3xKD+pp2AfGBn60iGCB18Seeo1GAaroiw1v7z3RW9fe/090PtnShPYZUu8jyMN1whgcn4VgvVl7aPL2gBQcCjsJRoAyb2F6v/Jkyte6JLNxLj1S3BR+5CG/FDk3INFNsGyrriSLie78th0r/qW/4g8/1ZckjRfbu+NRYb9WKQfhkKYmhLYqVfT7/zmBgGs+s7a/a+a52QA1NUJ7H+5yg107mnhmwfgn6+I4J50OvXC+PyVPxXp2zs5aqoRcu0pIifAF3jdwyKfzIlXti6YB6HG0bFY168z/ZnWJqDDOjoxdAa8OEzuENBOeS7a5GQAbFwqlV8sFI03jBE2piQR2BINRSkmdPmSdMe/pPVAw2SvDdmZB8LdjzHspM7r2KmnyL2XitzxrMjf4V7WOilkwsNPjuwvcv4QkXW7FLJkO8vSeQA0AOysu+akxv2/qhRTc5r7ra1jOdnJT5aZpdgYYHJbmfP3whPYzrPZ/5M+FPl2ceE5F6LE9bqK/Ok8kXMOSm7j38BBjRNtgG+/QKSQO+up8XH3JSK/Po6Nf0NdtPXu2zOiLR7W/x7Ia8+VG6zZyT7lZADUFxPk5nLIXkRekQ2BbXpkc7b95z7zhv06NKfBzluK3DcUS/q2bu7X5B7T4ad74A3QlShRJjUyfneiyF8v8nPJaz5st9kkn6t5beIImNzG/1WPnA2AXMccEgfPMYG29uife9lKNyf/7bWDyC0/L2xPOsx/gw3QON8BT8D+u4SZazov9TScvK/II1eIHIYJkUzZE9AgUUzuEEBwvpzG/5VATnMA9MJOXeXVpYtkFVYD5JyH5sMULoGtPfrn1rj/y2EEuJQO3V3ktyfYP4lNYxLoBEHtqT/0cjg1pOGtdXb/FhuEk5+vuXTpIKKBkb741lcCDultpK5rKvfgfDl7ALDmcDEa/zccQmm9Kt0629trzAX+2NdzuSq512jjf/VJ9jf+DYRTmJynDfYVWL3QoV3D0ezfN1tfpOJMkRvPYeOfPb3mr/Cpo9A8AUeOBvLWC9ebBblqk7MBoAVyGCBX7NFc59P4v8au19j/rqT+iOinPX8X0zED4bK/XOSgvhhzzOKJs0E3kUuPggfhMhEdFmEKjwDnAYTHMs6c8m2D83Pf69rDQEbECYBlf09gKwRA8SVpWNpCLzeLim0fzNsYdbo7Pf/mOG24jsjvTxa56AiR/0zGriUfinwwS2TZiqZnd8fKBw3g86PtRTSSn0YgZAqfgE/PivDpJSrHCflIk5cBUFokrywIpA5GQBZ2fT7i8trWCGwKV6kv6fVP3dBUg9eMOgNzatq7oU9bWmyIXr2GMNYXNhaTb+DJ0d0INelv+QwVpHPh30wIbNo9k7N4TsIJBNJO8pphk1fDvXrswbGR2IRXeSvibYKJPb4kVwyAXx0bb1jfOO8XnSOgkwR1Up++2PgXrjbiDCVdOC3dLgn/Pq9XX2fm5aNlXgaAFowMns1HAF4bHoFNPLHqZ+GW//Lb8LjFldOP9xA5YJe4Sme5PhPQiIk0uCy/A4w8l68GeRsAEIAGQL61ENL1vux65kLvX3u+Fx8ZUsUzGxLIgYBPHsMc8CT+Eoyg5d325m0AdOwqk+CKWJh4Wo4L2A3x/ztjfa8P6fVP7NfywsNRX56M+9tfW25q0CPGHSXdJFo4rTD7f1HfPrnF/28sZd4GAOIB6I7g/22cKT8XnoBP/8y2GwC6XfOQ3Qt/j7BEEmhMgPMAGtOw6zN6/+PuOM/ohnx5pbwNgPrSQxiLyEsLXiwbY5mVD+lzjP9/lXPYi2QQuvCwZMhBKfwmsJEnzwwXaxkNd97uf+USlgEQijAuVlShdNJ9vn1I/5tht5ba+9cXEwnETcCXZ0bcnKMoH9uEh9LmhmIAVJebaRiTcCguWxRVFm2eGgbYhzTza7u1PH1/u+Wn9O4QoAFgbV1OnTjahBIJJRQDoB5jEI5FYm2VxCy4TgL0Ic2w2ADotZHInj/woZaoow0EfOk02FAX2ciI3f9C6f1rmeEZACGNSWQDgud+T8CXf2abPQCc+Pf9/cpP8ROgByD+OshFAhNiWxuaAbBOSsaJEcc2Z82leuK5xpd/5s8s9QBgiEwO2S2ee4OlkkBzBHzxGjanu63H8BxZJV3Q1oaUQjMAnis3S0yQ+77EIenjbTY+eAC+RrSJhrjxtlW0TvzTPdiZSCApBEo9GTZMCu9Q5AiksqrMhBZ3JzQDoF65EMcmQoHlUSZdPAgCZLP7X3e3YyKBJBHQrZkZjCpJNZKRLKGN/2tpoRoAgQlvckJGKHjSdwRK8trX8btsEv3BZgPgh1snGi2F85RAsQfPDaeqtjjcNjZUA6B6lLyNeQCznQJuiTLtPNg3/bO5llTGGmJqiObtNlvjIL+SQAII+PDcSADmsESYU3W9hLr7bqgGgDEmwDyAJ8PSlvlkTsAHS37h0sx5JOnMnXvB1YZJgEwkkDQCPngOk8Y8Z3mMPKltbM7XN3NhqAaA5h8Uyb+aKYeHIibQzgNX3rIVEUOMKPveG0eUMbMlgTwJ0ADIE2ABL8ecjX+HXVzoBsD6m8s43akobEGZX+sESjwYAlhiqQGwxQat1x1/JYG4CPjw3IiLbZjlwoG4eL3Nw990L3QDYOxFZoUE8kyYyjOvtgn4YMnbugSwJw2Atm9gnhELARoAsWDPulD4/Z+tb1uzvrL1C0I3ALQ4rAYI3VXRuhr81QcCtg4BcNtVH+5OO3XUAFVMySeAOUSRtKmRGADtS+Tp+ohFyefqjIQr894ZOvkobB0C6NIx+WwpoZ8Ealb5qbdNWsNGq011lf9EIXMkBsArI823EHZCFAIzz+YJrPDgH9lWD0Cn9s3XGY+SQNwEamrjloDlt0UA7v9XKsvMN22dl8vvkRgAKgiHAXKpjtyvWemBAWCjBwDeMC4BzP225pURE/DhuRExwsizhzc9Eve/Ch6ZAVASRCd05MQtLMCHIQAb3ZU+TM608N+FIq8msIoegMTfC+1KomtLIzMAJlaYGbBc3ko8XUcE9GEIoGM7+yprOffHtK/SPJKYHoCEV7aR/2FIfWpUUkZmANQLHKHrIiogtubrgwfAxrF07WHxIWvrf5X7cnMOQLLrOEr3v2oeqQFQVBed6yLZ1VZ46XxoZDpZuuOhrZMXC38Xs8RCEggwu4weqkISz76s4oiH0iM1ACrHmDeh8szs1eYV2RJY4cEywE4WDgFoPc5fkm1t8nwSiJ7A4uVYX1YXfTksITcCWP4369VyeS23qzO7KlIDYLUIj2UmCs/Kh8ACDxoZG4cAtE5t3cUwn/uR1yafgA/PjOTXQssSwgB4NOzNf9YsLXIDoCgl/1izUH4Pn8BcD3ZfsHUIYMbX4dc3cySBfAnQM5UvwWivDwrQdkZuAEwqN1WwZKZHi4q5z1voPgNbhwBmfuV+3VBD+wgssHR7bftI5yTxzKrRMimnK7O4KHIDoF4WI//MQiaemgOBeT54ACyNqPfhrBwqlJeQQMQE6AGIGHA+2afkn1G7/1W8ghgARQGHAfK5FzK51gcDoHtpJiSSd44aAEsw4YqJBJJEgHMAklQbTWUxKXmo6ZFovhXEANDVAFjP+HE0KjBXJTDXgyGALSzdVldnWr8ZWSgP3v8kkBuBrxfkdh2vipiAkU+rR5lIZ/83aFAQA0ALwzyAglg0DYr59u6DB8BWA0Dvxdc/9e2OpL5JJzArku1lkq518uUrZFtZMAOgrpjDAFHeejqe53pcb5sNgBffibL2mTcJZE9gDg2A7KEV4Ap4ywvWWS6YATD5evMeLJv3CsDPyyI0qpfrwwCdMQlwfUvnAejD9q1pXt6aVDqhBGbTAEhezRj5oKrcFKy7UDADQElji2DGBIjwlpvuwXIzm70Az7weYeUzaxLIgoBGAVy0LIsLeGpBCJgCT5gvqAGQKtDMxoLUVAILmf5lAoUKWSSbDYDnsTfmMu4OGPIdwexyIcDefy7Uor+mqIDuf9WmoAZA1WjzMWYD6v4ATBEQoAcgAqghZqk9rscqQ8yQWZFAjgRmz8vxQl4WGQGM/b9TWWE+iKyAZjIuqAGg5WMeAIcBmqmIMA5N88AD0GvDMEjFl8cDL7k/WTM+uiw5UwI+PCsyZZGg8wo2+a9B54IbAKmS+qiAmLLGFDYBHzwAu2wJt1XB79rwakrXXj85Obz8mBMJ5ELg4zm5XMVroiTQrqTwneOCP0onjTTTAXFClCB9zfvbxSILHY/v3bWjyDab2F3Dtz/DyIB216D90n8y234dXNIA7v9XXhlpCh4urOAGgFYaenD3uFR5SdLFh4mAu2+VJOLZy/IN9m1QI4CJBOIgsHKVyEzuUBkH+pbLNHJ3yz9G90ssBkDHLvIwJgN4sIN9dBXXUs7TPFgKaLsBoHX3yESRT79oqRZ5nASiIzAN910dB2GjA5xlzpgXt8xomxhDKo6hTBlfZhb3Hxo8invw1DjKd7nM92aKHDXAZQ1F+sIDoPMA6hBj39akURt/e7/I3y4WaRfLf2G85GZhFvp/EO28GjuEfIbeqK6Q0OGdTbuL9NtG5LAfiti85DNeuq2XzvH/1vkU/Fcjj1WVmVh2c4nt0WOK5e5gFQ2AsG+2d6eHnWPy8uvSQaQP5gF88HnyZMtGoo8xDnvDEyKXHZPNVXafuxAN/Zh/iTzzxtoGnM5h0df/Zojc86LIvjuJXHhY2iiwW+tkSc/tqZNVH6mY3P9KIZYhAC140vUyHhMf8K/OFCaBqVgKqFG+XE8/3NoNDR95VWT8u27o0pYWOuRx4miRp9Hzb8t7o7//922R40eJ/PlpBlBqi202v78zPZuzeW6kBIx8dkgXgbkbT4rNADDGBDAA7o1HbXdL1T0B3vPArNrdEQNA78TfPSjy/mfu3pOq2SdYdvaLP4tkuwWtTli7+78iPx0pMpahlPO+SZYjEuVHs/LOhhmERADj/38vKzOxDWbGZgAoP4Q9vCckjsymEQEfLPz+fdJjxo3UtvbjshUil/5VRMfFXUw64/zC20V0x8pckxoOv3tA5Kyb3DeWcmWUyXU6R6g2tuYmEwn9Osek5O44NY7VAJg42nwKC+jlOAG4WPa7HngASopEDtjFndrTpYEX3YEecixTgaLj+MW3Iheg8Vf9wkh6b59+o8g1iJn2DeYLMGVH4O1p2Z3PsyMkYGRifXj8CItoK+tYDYB64RgToK06yvp3nUSlQwGup0N2d0vDz+aKnP0nzIrHuwtJN5w5/zaRL2EEhJn03n6yGsMC14ncP5492mzYvj09m7N5bqQEYpz816BX7AZASao+NLDj8esacBfmXScB6mRA11Pf3iIbr+uWlnPQaJ57M8ZpsULA5vS/mSJnoKf+eYTGjN7nNz4pcgImFk78wGZahZFdJ1a+O70wZbGU1gnA872sW1F929f6iRH/GrsB8Oooo87BxyLW07vsJ3/kh8qH7OaenvPwH6FGgG4fbGN64e30hD9d0leINAPBry75C153MsJda7x12awPK4RaY5CY34z864XrzYK45YndAFgN4O64QbhW/qvvu6ZR8/q4aACopksxMfDXfxcZ/bg9uweuwIz9CqzxV7lX1DRfX1EenYh7Xr0BN8ErsAT8mJoSoJekKY84v8U9+a9B90QYAIeVyjgsCeT0lIZaCeH9jU/hY/LgIdh743RQoBCQJTKLh19Ju9KTvkxQ5Tu5QuShl+Odf6IRFu8bn54foPMEmL4nUMlhku9hxPtp5qGd5YV4RUiXXpQEIcaPvzrYZFAZAoHKAUmQxwUZNNb3jluI9NzQBW1a10F7npM+bP0cm3/VIYEn0JjpMrpdeicrdLBG9rt1rMh1j6Sj+CWF8zKsd5/wnoh6wrbqIbLROkmRLB45FmCWlUZg9GBucDyAsygV4/+j77/OTMjikshOTYQHQLUrMXIXNgjCvy1TWAR8GQbQvQ80jrzLSSdw/RPegPqZ7y+JaECXOJMaXfeOEzn6WpEHII/2vJOYpsAzoSsrNIbAXMeWWGbDuwoGMjcAyoZYZOfWBEWCqB/JSInwACiKzyZevWTTQWU74qO+mEIgoOukT9onhIwSnkVJcTpU7JtTEy5oCOJpz1Yf5v+qSj/Qt9xIpENJCBlnmIV6Ix5E36UM0Qs1hLFG6rMhaSTCxyYJ+hgiO/REELLEdH0KQ+++8SK69wRTvARw/z02ucL8LV4pvi9d/x8SkwaOCPZBT2J8YgRyQJAHhotsDReo60nd40deg55xDJPP4mSrxs9e24sc3k9k4HbRNGw16N2/9gmGIWB0vPS/5Pb2M60H3XHwkiNF9vGkq6GR/4ZcnawhmkzryrXzMPlv/+py82JS9EqUAaBQsE3wlEDkB0kBZLsc5w9B5LT9bdciM/nLMWNe3eS+Jh0G0T0S+m+T3lI31/kf6irW9fuTsVWvzhzX97iHHKKo00EwmK46QaR71yhyT06e1R+lQzEnRyI/JcFE94+qymU73QcnKQTQf0hWAqTbEenrhmRJZa80uqOaLwbAyYPhX6u0v4ea6922aFnaLd+wu2DH9pgEuoFIL0wEVWOgWyeRTh3wwnEdNtBGXdeFL8FLr9UIhFO/EJn+VTzL+HLVO9fr1Lg5qRzLBs8V2XbTXHNJ/nUal4EpEQRuS1Ljr0QSZwB07Cr3LF0o18FEQn+GKV8Cuvf3tC9FdKzY9aRRAQ/qm95u1nVdM9FPl4Fq8Bd9MTVPQIMVXfwXkb9dLNID949rSSdnjsNcDaZ4CaBju7wIbVu8UqxdeuKmwowvM/MDI/9YW1QeyZWAT9uonrYfJnolbmAr15rjdYUgoBsVjXq0ECUVvgwdvlmA+TFMsRN4qLLMINB3slLiDADFU1wktyULk93SPPNGvMFZCklPPR1Ddi9kiSzLBQK6ZNbFXTTp/k/G3WkS2qYl0gCoHGWqUW1otpjCIKBbsr41LYyc7Mjjl0eIdMFYNxMJZEPANU+ZLtFsmA+SDQeeGy4BOCTfrhplJoWbazi5JdIAqFctRS9AOFWczsW1h1trbNbrgs10DmntDP5GAmsTeG/m2sdsPqKNv07uZIqZQEpujVmCFotPrAGA+TgPwHLyOHZXi3WW0w+6GqDGkqAtOSm4xkXH7okQsBuvcZBfSaAVArPntfKjhT/9K5F9TgtB5iEy5iMt6tRF7s8ji0gvTawB8Fy50akr90aqvUeZa0/glSn+KKyR3kYc44++1DR/AkWJiYuavy4ax0GDNzHFTMBgb6oyg7UmyUyJNQAUFyZO3IS3xARNSGYVZi7VIxMzP9eFM3fbSuRALAtkIoFMCGzYLZOz7Djn31V2yOm4lEFRUN+GJVbNRBsAVaPNxwje/VRi6VkmmC4J+vQLy4TOU1wN+aoBcZhIoC0Cu27Z1hl2/K5r/5+abIesLkuJIeyxlRUG4aaSmxJtACi2VJH8Mbn47JPsny/bJ3M+Em9Qmo77nk8evNYPAkcMcEPPlzHUp5s2McVLIJVKftuVeAMAyyfG6TKKeKvSndKffh0zK5e6o08mmhy9h8h+O2dyHIeUdgAAMB1JREFUJs/xlcBeO4hs48imWf+Y4GstJkrvdyeVmxcSJVEzwiTeAKiX2STfkmqGbSIPragR8XF88DfHI9TreomsEgoVM4F1sWz08p/ELERIxU+ZKeLDttgh4YosGzSsVuxnY4UB0LOrPIjlFJ6NXkd2b8ojr4roFqE+JQ0M9Puf1UeZ9Elt6toGAUQdletOFXFlAuB949tQmD9HTgBt1Vfr9Uru0r/GAKwwAB4uMyuxQ+CfGwvOz7kTmIPIgBPey/16W6/cqRcCBB1sq/SUOwoCFyNqpK4WcSHN/kbkxXdc0MRyHdBWjb3IYCuu5CcrDADF2NnIrbCslicfqR0S+tpT0M2C+m1jRx1RymgJHLq7yPF7RVtGIXN/cIJIHRdNFxJ5c2WtKE5w5L81BbbGABhfYRDaQu5bUwF+z43Au9NFJn2Y27U2XwUjUv4PQwHrY3UAk78Ett1M5FfHuaO/Tux9gmv/Y69QPF/un1huvopdkAwFsMYAUH2CYjsmVmTIPvbT7ngmdhFiEaB7V8zQOVukE+MDxMI/7kLXwaS/0aeLtC+OW5Lwyr//JZFlK8PLjznlRqDYsgnrVhkAk68376ED91xuVcOr1iTwv5kiExMdpmJNicP73mdTketP56TA8IjakZOGiP7DKSIbY7MRV9J8BJrl0r8E1KaRF9D7/18CJMlYBKsMANUqYGCgjCs3kxN99QIomwF9RHR5IJM/BH55uMgPt3ZL33vHsfefhBrFgpIxSZAjGxmsMwCqR8mzGGeZko2SPLdlAlM+E3n1/ZZ/d/2XIZgIdsFhrmtJ/ZTAKfuKnLSPWyzmLhR5GMt6mWImYOSDynKxblDVOgPAGBNgGGBkzNXtVPE+ewG0InVlwE/3dKpKqcwaBLSOtffvWrrnRREN7sUUL4GUkVHaNsUrRfalW2cAqIodNTCQyPTs1eUVzRF4/3ORl6wauWpOi/yOjThaZF+GC84PYkKvPn1/N708XyKex2Oe7fCZyFvMyGe7bGPnCjUrDQDsr7wKptaoRN4Mlgp14xMiNassFT4EsXV5oE4OG/LDEDJjFokhcMYBIucPSYw4oQpy01P4n8XOf0zxEsCjY/Qd5xkr/TBWGgBa3Z1L5W94aDM8cEj3/ufzRB6YEFJmlmajM8TLTnQrOIylVRGK2GcdKPKLQ0PJKnGZvD1N5Pm3EieWdwKhDfqqaFO501bFrTUA4AVYLsa+WZdJvlHuel5EJxX5nob9WOQchgy2+jY4+yCR8w6xWoUWhUdYdBnzrxZ/5g8FJICq+GPlULOsgEWGWpS1BoBSKEnJbbDAMBLGFAYBDSRyM9yKTDAA0IAMw7wAHRpgsouA7vfg8p4PT00W0Xk7TDETMLIg1dXuPWqsNgBeHWUW4QF9c8y3gVPFP/26yLsznFIpZ2WO/1F6SEB3jGNKPoEOJSJXnySivX9X01JsMfPnp13Vzi69tO2pKjNW+0ytNgD0dglK5EYMBSyx69ZJtrTlj4MrfFtMIrphjIYN1vCxTMklsGl3kTsvStdXcqXMX7I7nhWZtyj/fJhD3gSWdgrsD01vvQFQfZ2ZBy/tHXlXJzP4jsD7CA70RPV3X73/0L8PdqEaKrJzL+9RJBLAoB+I3HupSJ9NEileaEJp0C6G/A0NZ34ZGfnL6g3q8ssn5qutNwCUX1EHqYAXACPYTGER0GWBXy0IKzf789mwm8jtF4icuLf9uriigc7PUHf/H88S6drRFa2a12MVlvtd+xC3+22eToGPoq1JFUl5gUuNpDgnDIDKa82sVCD3RELI00wXL8e6+H96qnwLausywUuPSm8i1KVDCyfxcEEIdEGDX3FmerKfDxM17xsv8vGcgqBlIW0QgN15b9Uo48Q0TCcMAK2voiK5HhXDsBht3LzZ/Kw7BT7JoYC1kO27k8g9cDlv47jLeS3FE3Jg6x5pl/+Ptk+IQBGLMfNrzG94LuJCmH1GBLSNKSqR6zM62YKTnDEAJo42n4I3nGRMYRL44785FNAcz83XF/nbxSJnItgMVwk0Ryj8Y8pZw/refYnIZpj050PSybjXwhO30uMonUmqZ2xE83DlSPNJkmTKRxZnDIDVEK6mFyCf22HtazkUsDaThiPtikV+jmAzDwwX2W2rhqN8j4KATvBTg0vD+ip3X9L940XenOqLtgnX00gdGsxrEi5lVuKhvXQr9R8W3A2r+TS3tIpfm6uOFzmif/xyJFkCDdBy05Mi87koNbRq6tAu3evX3fx0DoZP6UOMMp9xk4hOAGSKnwDmmtxfXWFOjl+S8CRw7l+qXYn8H/BYuTFDeNUafk5jMBQw+5vw83Upx8P7YW/2y2kohVGnOrHvkN1EHrkCwywH+Nf4L8cT7Kr72fiHcS+FkYd6lk1Krg4jryTl4ZwHQOEOGBrcUYdorkkC7YIsP9gMk5F+iRDMHrlgc603ddveOlbkLbpvs0a4wxbpMMw74t3XdP2jIo9O9FX75OkNg/Qu9P7PSp5k+UnkpAHwo8uDLVasko8lEDgQmcIkcOyeIiOOCTNHt/N6HVNTdQb3685MG4quvrbdVOQsrOsfvGN0ZdiQ88vvwQC6ywZJvZGxpqid9Jk00kx3TWMnDQCtpH7DgpthACB0C1PYBP5wqsgBu4Sdq9v5vTUtbQhUf+S2nrlotx08SxrQZ+8dcrnarWt0mO3UMSILrd1fzq36UG3g+r+1utyc755m0M1FpVSnPS8LNqmplU8xIZAhW0Ku5M7t0+vgt9gg5Iw9yE43WvorPAIaY8HnpGP8A7cTOX4vvG/rM4nvdV+Bcf+z/yTy4azvj/FTvARwny5HpNmtNdhcvJJEU7qzBoDi6j88qAjqZGg06PzOdRsEY7kLy7Lal/jNIVftNbjLf14TeRqvL+fnmot912nIXl1N8lMMJfmylj/TWvq/f4joShKmRBG4YfIYg7BfbianDYBBw4MNawKZiqGAzm5WX7xaHTVA5NfHxSuD7aVroJfJH6cf/OPfFdHZ364lDeCjGyrprH4d39elfUxNCeiEP534x5QoAktTHaR31R/Ml4mSKkRhnDYAlNOAYcF1dYFgMRFTFASG/ljkBLhxmfInsAR7vb/wVtor8M50rDuqyz/PuHJIYYHxTj1FDu6L+SK7YjtlmuAtVoUOC513C5f8tQgoph/g/h+Fmf9Y2Otuct4AGFgWrFe7UKaho1XqbjXGp1kKd9DoM0T22iE+GVwseclyrBzACgKdNKgegmkW9EHW7ZIe1x+Esf0BGNfv1snFmglXp1nz0uP+8xaFmy9zy48AGv9FWEO2pW43n19Oyb7aeQNA8WNFwNUYBvhtsqvCXuk6wqV7x4UiuoyLKRoCcxeKvIalhPUGAd6//DaacrLJdTPsh6C9fH3t3EukD+s/G3zyDRp9nfT3udNNTFZIEnMyPFjXVJUb59sMLwyAAy4Pui1cVb8ioHti7jDHBNkA/pW/XSKyYTfHFEuoOrpHw/Sv8IJnYAbeZ3yd/v753PBdyet1Fem1oUhPvPS910YiGhSKbv3cbw718Pz8z5zxnzvB6K5E7//b0mLZ8oXrzYLoSklGzl4YAIoacwEuxlyAG5KB3U0ptAf4lwtEOmKZIFM8BHTegLqVv4bHYCkaGZ1XsHT1Sxudhu/LViKiIybntUdUR4TPrt9gR1d0aKPeHQ1+dxh09e/43In1GWpl1qwSueTO9NBOqBkzs1AIYPrKiKoxpjyUzBKeiTcGwLFlQbvpC+V91EfvhNeJ1eLpHu3lZ4joJDAmEiCBpgTqYKD95j5M9ny76XF+SwYB9P5ndO8p2469yMBsdj9585h+uMyslJRc6X6VxqvhK1NEfv9PEV3exkQCJNCUQPm/2Pg3JZKwb0Z+5Uvjr+S98QA03Gb9hgZV+Ny/4TvfoyHwk0Eil/8kmryZKwnYSED3hLjjWRsl90Nm9P5fryqXfsYYb7ov3ngAvruFjYz47jM/REZAA5v88d+RZc+MScAqAo9XsvFPeoWZIhnhU+Ov9eGdATC5wkyA3+OJpN+MLsj34ASRPz/tgibUgQRyJzDuXUb5y51eYa5E7/+pqlFmXGFKS04p3hkAih4Tny/H2EdtcqrBXUnu/i82v3neXf2oGQm0RkCDOF2FSX9YgcSUUALaFuDldMS/ltB7aQBUVpgPAAQLcZgKQeD2Z0Tu8862LgRZlpFkAtrzvxRPmZVY9seUXAJo/O+qqjCYvuxf8tIA0GoOiqQMFb/YvyqPR+ObnuIYaDzkWWocBHTM/8p72PjHwT6rMo0sqSvyN0qstwbA5NHmC9woXgR7yOofIsKTdRa07nima6GZSMBVAjrkdd0jdPvbUL8Y+y9f3RbYIG7oMnprACjJdVJSjhtADQGmAhHQ1QFX3R9+uNoCic9iSKBFAmrYjnpMRIe8mJJPQJ/962Avs+RLGp2EXhsAz5WbJRgG+F10eJlzcwSef0tk6F9FlnkRa6s5AjzmGgEN76sR/h551TXN3NVHn/3aBrirYduaeW0AKJ5Du8qdsATRJDEVksCkD0UuuE1kwdJClsqySCB8ArrHgsb2Z3jf8NlGlSMa//e2GCDohvidwIEJGwX9CMt0XiaJwhPQ3eXGnCWiW8sykYBtBHRL34v/wl39bKs3k5L9q8vNi7bJHba83nsAFCiWgLwCS+iBsOEyv7YJ6Ja2p92Q3ue+7bN5Bgkkh4Duunj2n9j4J6dGMpMEz/qH2finWdEAWH3PlBQjDCSXBWb2HxTyWYuWiVx0h4hGDmQiARsIvDsj3fh/DiOAySoCSzuIDLNK4giFpQGwGu6ro8zswMi1EbJm1q0Q0EhpunfA//2Da6dbwcSfEkBAV7Kcd4vIPLj/mSwjYOS6CWPMZ5ZJHZm4NAAaoe3VVcZgQiCCdzLFReCpySI/x8N17sK4JGC5JNA8gRU1aQNVY1msYiDx5iEl++jU9Xv6vexvzeqB15upMYH+w4PDgjpB3DqmOAlsUCry+1NE+vaOUwqWTQJpArO/QbD4uzneb/P9UCRy1KQxhhvBNapEGgCNYDR87D8seCoI5LCG73yPh0AKd+cZB2Cs9SCRIvqq4qkEliovvydy9YMiCzFXhclOAniUPFM9xhxqp/TRSc3HajNsi0rkEmwZvLKZn3iogAR0XoCGVT0XQwLaA2MigUISWA6Xv7r7h93Fxr+Q3EMvK/0svzj0fB3IkAZAM5VYOdJ8AjBjmvmJh2Ig8O50kZ9ViDz7RgyFs0gvCXw4S+RUPAF0wh+T3QTQ+78Bvf+P7NYiGulpALTAtZuR3+PGwWOAKQkENNqa7iGgrtilDCGchCpxUgYM/dVvXX3GjSIao4LJcgJGZnfqKtdYrkVk4tMAaAFtfYzolFzWws88HBOB/7wm8vdxMRXOYp0mMPNrrED5s4huXc1Z/m5UNVZ1jRhfZha7oU34WtAAaIUpokU9AC/Ay62cwp9iIFDaKYZCWaSzBLSxv/u/Iidhc/A3pzqrpneKofF/RZ/h3imehcLFWZzr56kl8kuzSl6Da5CsEnIHbLVxQgShGNYTmIKQMNc+JPLxHOtVoQKNCKDjVosn9oWNDvFjMwToAWgGSuND1debt/GdEwIbQ4nxczf0/nfbKkYBWLQTBHQeyY1YEX4mxvrZ+DtRpU2VMHLT6md30+P81oQAe7VNcDT/pWhTKaudJcfCC7Bl82fwaKEIHN5PpLioUKWxHNcI6CQ/jTb556cZyte1um2kz0xM/Ptto+/82AIBeEqYMiEwYERwUF2tPJvJuTwnGgLrdMayrCtFunaMJn/m6jaBt6fBlfcvkfc/d1tP37XDVr+HY+z/P75zyER/GgCZUFp9DiIE3ocexM+yuISnhkjgquNFjugfYobMygsCX34r8ic0B8+96YW6fitp5KHJFeYEvyFkrj2HADJnJe3byaUrVsih8CKul8VlPDUEAscMZOMfAkavstDd+nR2/2MI5lODmf5MzhOYLylEcWXKmAA9ABmjSp84YHhwRl2dIDgoU6EI7I5Jf386j2P/heJteznzser7XsSKePhVEd3Bj8kPAlj2d051hbnTD23D0ZIGQA4c+w0Lxkkgg3O4lJdkSaDPJiK3ns9x/yyxeXn6wqUi978k8o8JIsu4k4dX9wAa/wlV5TLYGAMHLVOmBDgEkCmpRufhFjsPd9k7ONS+0WF+DJlAzw3TPX9O+gsZrGPZ6UZRD6LRf6KKDb9jVZupOiuwMOg8Nv6Z4vr+PHoAvmeR1Sd4AX4DL8A1WV3EkzMm0GNdkb/8UmTDbhlfwhM9IzBlJuL2o8f/IiJ16M6RTH4SwLbhv6uqMP/np/b5aU0PQI78enWVUTMWyYlYFbB9jlnwshYIrF+Kddq/YOPfAh6vD2vY3penpN38DNvr9a1Qrzx6sO9v0VVGwvnDlAMBegBygNZwyR4jgj1ra+v3CiDHBih5vnfDWv/bMebfm+F+8yTp1uWfzxX5N57yGsRHZ/czkQAIBOj9743e/yukkRsBNly5cfvuqv5Dg9vgfcQcdaZ8CXTugAl/6Plvt1m+OfF6FwisXCUy/l2Rf00See0TFzSiDmESQON1e/UY8/Mw8/QtLw4B5FnjpSVy+YIaORLZ9MgzK68vb18icsPZbPy9vgmgvLr4tbF//q10479ome9EqH8LBObos7eF33g4QwL0AGQIqrXT+g8PDgvqBLuIM+VCoARTeMecJTJg21yu5jW2E6itE3nj03SjPw49/gVLbNeI8kdNAMv+jsaafwR2ZsqHAA2AfOg1uhZhgv+KCYFnNjrEjxkQKEqJjDxNZJ8dMziZpzhDYAHW7Fd9KFL5gchEvL5F8B4mEsiQwH2Tx5hTMjyXp7VCgEMArcDJ5ifTVS4NFsmBWBq4eTbX+XwurHj53Yls/H24BxA9Uz74PN3Ya6P/HpbwcemeDzUfso5GZmO48KKQc/U2O3oAQqz6AcOCA/FQey7ELJ3O6sqfihyNGP9M7hFYjkh82sjrDnxvTxd5F6/Fy93TkxoVlkCRkSGTKszYwpbqbmk0AEKuWwwF3IqhAM5MbYPrRUeInDy4jZP4sxUEdLb+tC9EPp4j8tGsdIOv7zq2z0QCYRGAx/BOjPufE1Z+zAf7qxBCuAQ6dZURSxfJwTACtgw3Z3dyO/sgNv421qb24Ocg7O6seWjwv0w3+J/MFpn5Nd35NtanTTKj8Z+BycJDbZLZBlnpAYiglgaOCPbBcqZxyJp81+B70j4il+iiSaZEEIChWu+a15n3OjFvvr7jpe9fLxDROPv60oZ/IZfkJaLOPBQiMCk5oLrcvOih7pGqzAYqIrzYK+AGTAi8OKLsrcz2xwNEfnWclaJbJ7SOwX+E3rm64qd8JvIJ3PN6rAbr7Gvgstd3dd3rMbrqraterwRGI3UzAv5gZxCmsAlwCCBsoqvzK95UrqydJYeih9UnoiKsyvagviJXYNIfU/gEdAndpxiD18ZeZ9p/iPcZX9EtHz5p5lhoAmj8P9molAF/ouJOD0BUZJEvAgQNhAHwCjwBWO3ub9oeCyPvhP1ejIA/TLkTWAwX/FQ09NrY17/Qq5+KsXiuoc+dKa9MMAEjdYgTsvek0ebVBEtptWg0ACKuPqwKuB5GwGURF5PY7DXQzz2XivTZJLEiJkowHZP/cr7IdPTgtRev7zrJbjoa+q8XJkpUCkMC0RJISfnkcjMi2kL8zp1DABHXf/ee8tt5M+RwPNi3j7ioRGZ/wC5s/JurmLlozLVh/wy73H2G95mr33XXuxUYm2ciAZ8JYNb/lO5byG98ZlAI3WkAREx57EVmBQIEnYr1AJNgBHjHe9tNIwac0Ox1UxvtyWuD/jmWzelLl8/N0oYe7zr5jokESGBtAmj8V0mRnKbPzrV/5ZEwCXjXIIUJL9O8sF/161gVcBXOvy7Ta1w5b/MNXNFkbT3mY/KdLpGrb9hXL5fT79roa+PP2fVrM+MREmiLAMalr6kaZV5r6zz+nj8BGgD5M8woh8O6yqinsVcAvAD7ZXSBIydpY2hrWoh18br+fc636VfDmvjZ6MHr52XsxdtatZQ7oQTQ+L+8xQC5tiqh8rkmFicBFrBG97ws2ATrr9+BEdC9gMXGWtR+O6d3+4tViBYK/2aRyBfoqX+hDfzqhl4bdv2sx5bQAdkCOR4mgfAJwPX/bYdAdpkwxiByBVMhCNAAKATlRmXsMTQ4EsPD/250yOmPCN8p92IVwFY9CqumBrv5asHqxh2NuTbo9a/VDb5+1kA4TCRAAskgkCqSn1aNNo8mQxo/pKABEEM9Yz7ALYgNcH4MRcdS5NZo/O++RKRdSANO8KDIPPTev9LGHC8db9cGvfG7/s5EAiRgCQEjd0yuMOdZIq0zYob0SHaGR0EU6dxVhi1ZJHvDCNixIAXGXIiGob3gNpH/O0mkx3ptC6Nx6LUx1wZe3+s/ozff0MBrz15n2TORAAnYTwC90Pc36irwEzIVmgA9AIUmvrq8QcODHVcFMhm92Q4xiVDwYjUo0OCdRHbdUqS0k8hSjLFrY/4leu/176sbfa6DL3jVsEASiIvAilRK+leVm3fiEsDncmkAxFj7iA9wfl0gt8QoAosmARIggdgIYOLfRdUV5k+xCeB5wTQAYr4BMB/g3xgKODJmMVg8CZAACRSUABr/p9D4H1HQQllYEwJeb1LThERMX0w7ORNRArFxKxMJkAAJeENgDkYBz/BG24QqSgMg5oqpvs7MgyV8CoyAuphFYfEkQAIkUAgCAeYDnTq+wlgcJqwQmKIvgwZA9IzbLKG63LyIihjV5ok8gQRIgAQsJ4AOz+hJ5eYFy9VwQnwaAAmpxl36yG8xIWNSQsShGCRAAiQQPgEjk3ftw13+wgebW46cBJgbt0iu2ntosPkyI29gUuD6kRTATEmABEggJgJobL5JtZPdJ40002MSgcWuQYAegDWAxPlVY2BjTezPOB8gzlpg2SRAAhEQCEyRnMLGPwKyeWRJAyAPeFFciljYz6FSro4ib+ZJAiRAAnEQQMfm93i2PR1H2SyzZQI0AFpmE9svk8rlGrjLnolNABZMAiRAAmERMPL8oV2kLKzsmE94BGgAhMcytJyMMYG0l5MxW3ZGaJkyIxIgARIoMAE8wz7vLHJSWZnhMucCs8+kOBoAmVCK4RyND4Cdmo7FfICVMRTPIkmABEggXwI1GPc/luv988UY3fU0AKJjm3fOEyvMZKwIuCTvjJgBCZAACRSYgEnJ0KpRhkubC8w9m+Iw1MyUdAL9hwX3YdfAnyVdTspHAiRAAvUEjPxjcoU5kTSSTYAegGTXT7102Cv7XFhq71kgKkUkARLwnADG/aesa+RszzFYoT49AFZUk8ielwXb1tTKZHgCuloiMsUkARLwjAAalMVFRvpVVpgPPFPdSnXpAbCk2l4dZT7EfICzLBGXYpIACXhIAA3K2Wz87al4GgD21JVUjzEPQ9wbLBKZopIACXhCAI3JTZPGmIc8UdcJNWkAWFaNnUtlBNxs4ywTm+KSAAk4TADj/hN22VaGO6yik6pxDoCF1dr/yqB7sEKqIXpvC8WnyCRAAg4RQCMyvRPG/bne375KpQFgX53VS9zv8mAHs0oqOSnQ0gqk2CTgAgEjS1JGBlWVm3dcUMc3HTgEYGmNT77evJcK5GSIH1iqAsUmARKwm0AA1/8pbPztrUQaAPbWnWDCzRPYZevXFqtA0UmABOwl8LvqcvO4veJTcg4BOHAP9BsWPAg/wAkOqEIVSIAELCCAhuNhrEo6zgJRKWIrBOgBaAWOLT8VbypnwhX3ui3yUk4SIAGLCRh5c6NSOd1iDSj6agL0ADhyKwy4LNgsSEcK3NgRlagGCZBAwgigwfiyg0i/CWPMZwkTjeLkQIAegBygJfES7Lr1ObbePBqyrUiifJSJBEjAcgLYmrxI5Bg2/pbXYyPxaQA0gmH7R916E0MB59muB+UnARJIHgEs9/t55RgzMXmSUaJcCdAAyJVcQq+rrjD3YB/uMQkVj2KRAAnYSeAGLPf7m52iU+qWCNAAaImMxcd79pfLMFb3jMUqUHQSIIGEEMCz5LleezDMb0KqI1QxaACEijMZmT18nKktLcGyQCP/S4ZElIIESMBGAmj83+9UKsfrM8VG+Slz6wRQv0yuEth7aLD5MiOTECNgE1d1pF4kQALREMB8oi+KRfaYWGFmRFMCc42bAD0AcddAhOXXz9ZNyWH4R14UYTHMmgRIwDUCiPGP3uHhbPxdq9im+tAAaMrDuW+TR5u3oNSxMAJWOaccFSIBEgidABr+Wjwvjq+qMAwuFjrdZGVIAyBZ9RGJNFgZ8Cwy/kUkmTNTEiABtwik5ALE+P+PW0pRm+YI0ABojoqDx2AE3Il1vL93UDWqRAIkEBIBPCNGovG/PaTsmE3CCXASYMIrKGzx+g0N/o48dRthJhIgARL4jgDc/g9WlcvPjDHcYvw7Km5/oAfA7fpdS7tepXIWrL5xa/3AAyRAAj4TeKlnVzmdjb9ftwA9AH7Vd722g8uCdZYulFdg5u/gofpUmQRIoBEBNALvt2sne74y0nzb6DA/ekCABoAHldycij+6PNhiRQ1iBIj0aO53HiMBEnCfANz+X6RKZOCkkWa6+9pSwzUJ0ABYk4hH3wcODfoivNcEeAK6eKQ2VSUBElACWOuPMeB9uNzP39uBcwD8rXvBzl5vYtbvcYwR4PFNQNW9JICeH9f6e1nzTZWmAdCUh3ffJlWYsZKSs6A4Z/56V/tU2FMCAXYMPYdr/T2t/UZq0wBoBMPXj9Wjzb3wBFzqq/7UmwR8IoDe/3Bu7etTjbesKw2Altl49QvGAW9Er+Bqr5SmsiTgGQH8j19bPcaM8UxtqtsCAU4CbAGMr4f7DwtuCgL5pa/6U28ScJUAGv9b4fY/31X9qFf2BOgByJ6Z01cgEtjFUPA+p5WkciTgGQGN8jeki1zomdpUtw0CNADaAOTbzxoJrHOpnIElQk/6pjv1JQEXCcDN+/SufeS0sjJT56J+1Cl3AhwCyJ2d01ciWmCHJQvlGSi5j9OKUjkScJgAHvAvF20mB1cONcscVpOq5UiABkCO4Hy4bEBZUBoskhcxJ2B3H/SljiTgFAEjb3Yrln1fuN4scEovKhMaARoAoaF0M6PBw4L1l6AXgSgB27mpIbUiAfcIYMz/o2Ije00sN1+5px01CosADYCwSDqcz95Dg83hP3wFKm7hsJpUjQScIIDG//N2xdjc53oz0wmFqERkBGgARIbWrYz7Dw36IFSgGgEbuKUZtSEBhwgYmVsssldlhfnAIa2oSkQEuAogIrCuZYvgIR/hwXIwehfcMtS1yqU+bhAwsgAP9EPY+LtRnYXQggZAISg7UoZuHiRFchDUme+ISlSDBJwgAFfuwmL8b3JnPyeqs2BK0AAoGGo3CqoeZV4rLpaDESeAM4vdqFJqYTkBbfwN/icrR5lqy1Wh+AUmwDkABQbuSnF7DA8G1NXJc5gXUOqKTtSDBGwjgCG5RUUB3P5jzETbZKe88ROgARB/HVgrQf/hwUAsD3wWcQK6WqsEBScBSwng4b0YBsChcPvr5FwmEsiaAIcAskbGCxoIYGORylRKDtUHUcMxvpMACRSAgJElgZHD2PgXgLXDRdAAcLhyC6HapNHmVUwMHII5AYgXxEQCJFAAAkuLjBw+ucJMKEBZLMJhAjQAHK7cQqlWPdq8XJySw1De0kKVyXJIwEcC8LYtw7a+R0wqN+N91J86h0uABkC4PL3NrXK0eSlVLIfrA8pbCFScBCIkgPH+5RhyOxJDby9GWAyz9ogAntdMJBAegX5Dg/1xUz2J1QEdw8uVOZGA3wS08UfP/6iq0eY5v0lQ+zAJ0AMQJk3mJZPHmP/iYXWUPrCIgwRIIBQCK4KUHM3GPxSWzKQRARoAjWDwYzgEMDP5eeT0YxoB4fBkLv4S0P+hVJEcM3m0ecZfCtQ8KgIcAoiKLPMVBAsajGBBOhzQhThIgASyJKArawI5Sr1qWV7J00kgIwI0ADLCxJNyJTDgsmCPulUyFtevk2sevI4EvCOAUNvFgQxhhD/var6gCtMAKChuPwvrf3mwS1AjOizArYT9vAWodTYEdEvfQA6q33wrm+t4LglkSYAGQJbAeHpuBAYOC7arDeQFDAdsmlsOvIoEPCBgZDYmZh2IeTRTPNCWKsZMgAZAzBXgU/HYO2BLjGn+F3sHbOmT3tSVBDIhgIfxdGzpe8DE0ebTTM7nOSSQLwGuAsiXIK/PmAACmEwr6iB7IWzwBxlfxBNJwAMCmO3/Ebb03YuNvweVnSAVaQAkqDJ8EKXyWjOrQzvZGw+8t3zQlzqSQFsE8L/wjmkve1eNMp+3dS5/J4EwCdAACJMm88qIwMvXma87dZV94fKclNEFPIkE3CVQ3a5EBlf9wXzprorULKkEaAAktWYcl2t8mZnfqVQOhBEwznFVqR4JNEsAPf8J7YrlgFdGmm+bPYEHSSBiAjQAIgbM7FsmACNgMYyAIXgQ/qfls/gLCbhHAIbvM0WbyiGvjjKL3NOOGtlCgAaALTXlqJwwApbv2keOxsTAfziqItUigSYEYPD+s2epHFU51HDnzCZk+KXQBGCIMpFA/ASCIDADhksFlgheGr80lIAEIiJg5MbDusrQsjJTF1EJzJYEMiZAAyBjVDyxEAT6DQuGIVbAaJTFe7MQwFlGoQgE6PlfUV1hRhWqQJZDAm0R4EO2LUL8veAE+g8LTkTEwLthCLQreOEskATCJ1CTSsmZVeXmvvCzZo4kkDsBGgC5s+OVERLoNzTYHzfnYzAESiMshlmTQKQE0OtfhPv4J6u3yI60LGZOAtkSoAGQLTGeXzAC/UYEu0qtPI0CexSsUBZEAiERwMP1y1SRDJk02rwRUpbMhgRCJcBVAKHiZGZhEpg82rxV1E4GYTbAh2Hmy7xIIGoC6Pl/3A73Lhv/qEkz/3wI0ADIhx6vjZzApJFmumkne+KBWhl5YSyABMIhUN1JZBAC/EwNJzvmQgLREKABEA1X5hoigerrzDwETdkfnoAnQ8yWWZFA6ATg9n963ZTsN77CzA09c2ZIAiEToAEQMlBmFw0BDZrSa4AcjRv2L9GUwFxJIE8CRv6GyJZHPVduluSZEy8ngYIQ4CTAgmBmIWES6D80+B1WB5SFmSfzIoF8CKSM/B4z/a/KJw9eSwKFJkADoNDEWV4oBAYMC06pC+q9Ae1DyZCZkEAuBIysxEP0XAT4uSeXy3kNCcRJgAZAnPRZdl4E9hgR7FlbK48jkw3yyogXk0AuBIzMxZDU0ej5v5LL5byGBOImwDkAcdcAy8+ZAJZYvYplgv1hxb6Xcya8kARyIIBVKVPal8gANv45wOMliSFAAyAxVUFBciFQv0ywtD5WwNhcruc1JJAtATT+z5YWc5lfttx4fvII0ABIXp1QoiwJVJWZhVghcASWCd6Y5aU8nQSyIgBv0809B8hhL1xvFmR1IU8mgQQS4ByABFYKRcqdQP/hwXnYROhmbCtcnHsuvJIEmhLAg7IWPf+L4PL/c9Nf+I0E7CVAA8DeuqPkLRCo30jIyMMwAtZt4RQeJoHMCRhZgN38jqsabZ7L/CKeSQLJJ0ADIPl1RAlzIIBYAX0wJPAUjIBtcricl5BAA4GpRcVy+KRR5v2GA3wnAVcIcA6AKzVJPZoQqB5jPirqKnvAwh3X5Ad+IYEMCeDeedm0l/5s/DMExtOsI0ADwLoqo8CZEqgsM9/suq0cjJuc4YMzhcbz0gQQ1rdnqRyg+1AQCQm4SoBDAK7WLPVqQmDA0OCCOpE/4mBJkx/4hQSaEqjBZL9hiOz3p6aH+Y0E3CNAA8C9OqVGLRBYHTnwYfzco4VTeNhjAmj4v8AD8VgG9/H4JvBMdQ4BeFbhPqurkQM7dJDdweBVnzlQ97UJoPGvLCmS3dn4r82GR9wlQAPA3bqlZs0QePkPZk7fbWVfrBC4pZmfechDAiYlt/bsKoNfHWVme6g+VfaYAIcAPK5831XvPyI4VWrlNmwt3NF3Fj7qj17/ciwT/cXkMeZuH/WnziRAA4D3gNcEBg4N+taKPAYjoJfXIPxTfmbKyDFw+b/un+rUmATSBDgEwDvBawKVY8ybRaWyOyxhRnnz5E5Az/+/nU39eD8bf0/qnGo2T4AGQPNceNQjAhovYEipHAqVr8MLzgAmVwmg8R+NzXwOHl9h5rqqI/UigUwJcAggU1I8zwsC2EzoaJgA92BsuKsXCnuiJB50i6HqmYgQqctAmUiABECABgBvAxJYg8DAYcF2tUH9vIAfrPETv9pIwMgH2Bvyp5OvN+/ZKD5lJoGoCHAIICqyzNdaApUV5oN1UtIP7uJ7rFWCgtcTQA/n3nWN/JCNP28IElibAD0AazPhERL4jsCAYcEpCCF8K4YFOn93kB+ST8DIEtTZhVzil/yqooTxEaABEB97lmwJgT0vC7atWSUPYXbgLpaI7LuY7xYbOU49Ob6DoP4k0BoBDgG0Roe/kQAIIELch//f3tmExlVFcfzcmXFSGxMlhVKpkHbTWiU0fmSSFhVEXVQ3LvxAMIgWxUVVSpoUFNSNYtpJkKoVrFIkQbSuFKWIgkIlTSa6sPiBCxEVPxBNadVqNJnrf1ZdNIVMefO+7m8gJJl5797z/53knfPOve/elZ3aWlgrxgEk5QScvdTeaRWCf8r9hHmpIEAFIBVuwIisENCQwG0aEnhZ5eULs2JzCHbqQnZSdzMPTI+7N0LQi0YIREGABCAKirQRFAE9Krje1+11ia4EJTylYjVZ89NSwe6c2uu+SamJmAWBVBJgCCCVbsGoNBOoVd232lDoGi0lOyY7WTgoQWfpArZPG/lsJfgn6AS6ziwBKgCZdR2Gp4GAqgG3KAVoLBy0Kg32hGKD7vqP6+vemap7KxTN6IRA1ASoAERNlPaCIqBqwLvFFbZZmfSRoIQnKdbZVLlkvQT/JJ1A33kgQAKQBy+iIVECR59yP3YP2PUy4nHdlS4kakyOO2+w1bDLE+v67bqPR933OZaKNAjEQoAhgFgw00koBCoj/mq/aBMaFrg0FM2x6HT29Xlmg1NjbjaW/ugEAgEQoAIQgJORGB+B2h73SWmtXanM+nn1ygTBKNA7e0FMryD4RwGTNiBwmgAVgNMs+AkCkRLQmgE3aXLgQWUBayNtOJTGnP2kC9R9tTH3XiiS0QmBOAlQAYiTNn0FRWBmzL1fLluP9txsrBnAqwkCCvxvljqsh+DfBDQOhUCTBKgANAmMwyFwLgQqQ/4uVQP269yLzuX8YM5xdkIT/XZohv9kMJoRCoGECJAAJASebsMj0D/iL6kv2kHNDLgxPPXLUOzso7aS3cMM/2Ww4hAIRECABCACiDQBgeUS8N67yrA95Or2jOYGnL/c83J+3LyGSR6rVW3cOcfEyZw7G3npIUACkB5fYElABAZG/CZVAyY0LHBVQLLPkKoL0Gdax//uqar7/IwPeQMCEGgpASYBthQvjUNgaQLTe9xXvRtsS2NhG939/rv0UTl+V5ob2ns3Wh/BP8d+RlqqCVABSLV7MC4EAn27/eVuwV5RNaA/BL1a0W/Gl2z77Kj7IgS9aIRAWglQAUirZ7ArGAKNQHizdrQrFGynRJ/KsfBTuuMYamgl+OfYy0jLDAEqAJlxFYaGQEC7C67XUwIHVA24IU96daH5sFS0+9m2N09eRUvWCZAAZN2D2J9LAkoEtvu6VSUu0+sG6AJzUiX/4emqHWCGfy7/VBGVYQIkABl2Hqbnm8C1j/qL5+dtv6oBt2ZRqQL/O9oq+cHGbolZtB+bIZB3AiQAefcw+jJPoG+Xv0NPxz+nRGB1JsQ4+03B/5Fa1b2WCXsxEgKBEmASYKCOR3Z2CMxW3aFih21SUJ1IvdXa92BF2S4j+KfeUxgIAT2BzAsCEMgMgYEhv61u9qKqAd2pMtrZD0VvO6bH3dupsgtjIACBsxKgAnBWNHwAgfQRmB5zh1d120Zl7kOqCPyetIWyY84VbKS9wzYQ/JP2Bv1DoDkCVACa48XREEgNgf4nfaf9YcOqCOzUo4PtsRrm7C8lIM92Fm3vB6PuRKx90xkEIBAJARKASDDSCASSI7B1l1/9n7dBTRQc1E46m1tpiYL+MQ0cTpbMXtUSvr+2si/ahgAEWkuABKC1fGkdArES2LLb9ywu2KAqArcrGVgXRecK+t+pnUP6PjlTdceiaJM2IACB5AmQACTvAyyAQEsI9A37NcVFq9QLVtGkwYr+2Tfpe5c6W7lUh/r8b70/5519qWBf0++z5bLVjjztfl7qeN6DAASyTYAEINv+w3oINE1g2z7f9ucv1vXPonUVFsyX2+z4BWts7vDDbr7pxjgBAhCAAAQgAAEIQAACEIAABCAAAQhAAAIQgAAEIAABCEAAAhCAAAQgAAEIQAACEIAABCAAAQhAAAIQiJfA/8b464S0IDJVAAAAAElFTkSuQmCC;fontFamily=Courier New;" vertex="1" parent="1">
          <mxGeometry x="-168.5" y="-18" width="65" height="65" as="geometry" />
        </mxCell>
        <mxCell id="mxgNNjMldQ4FTRtb482u-35" value="&lt;font style=&quot;font-size: 18px&quot;&gt;&lt;b&gt;Group&lt;/b&gt;&lt;/font&gt;" style="rounded=1;whiteSpace=wrap;html=1;gradientDirection=north;fillColor=none;dashed=1;opacity=50;glass=1;shadow=1;fontFamily=Courier New;" vertex="1" parent="1">
          <mxGeometry x="-176" y="-93" width="80" height="60" as="geometry" />
        </mxCell>
        <mxCell id="mxgNNjMldQ4FTRtb482u-36" value="" style="outlineConnect=0;dashed=0;verticalLabelPosition=bottom;verticalAlign=top;align=center;html=1;shape=mxgraph.aws3.user;gradientColor=none;shadow=1;glass=1;strokeColor=#000000;opacity=50;fillColor=#3474FC;fontFamily=Courier New;" vertex="1" parent="1">
          <mxGeometry x="-256" y="-87" width="30" height="48" as="geometry" />
        </mxCell>
        <mxCell id="mxgNNjMldQ4FTRtb482u-37" value="" style="outlineConnect=0;dashed=0;verticalLabelPosition=bottom;verticalAlign=top;align=center;html=1;shape=mxgraph.aws3.users;fillColor=#d80073;shadow=1;glass=1;strokeColor=#A50040;opacity=50;fontColor=#ffffff;fontFamily=Courier New;" vertex="1" parent="1">
          <mxGeometry x="-168.5" y="-190" width="66" height="63" as="geometry" />
        </mxCell>
        <mxCell id="mxgNNjMldQ4FTRtb482u-38" value="" style="outlineConnect=0;dashed=0;verticalLabelPosition=bottom;verticalAlign=top;align=center;html=1;shape=mxgraph.aws3.user;gradientColor=none;shadow=1;glass=1;strokeColor=#000000;opacity=50;fillColor=#3474FC;fontFamily=Courier New;" vertex="1" parent="1">
          <mxGeometry x="356" y="82" width="30" height="48" as="geometry" />
        </mxCell>
        <mxCell id="mxgNNjMldQ4FTRtb482u-39" value="" style="outlineConnect=0;dashed=0;verticalLabelPosition=bottom;verticalAlign=top;align=center;html=1;shape=mxgraph.aws3.user;shadow=1;glass=1;strokeColor=#A50040;opacity=50;fillColor=#d80073;fontColor=#ffffff;fontFamily=Courier New;" vertex="1" parent="1">
          <mxGeometry x="376" y="82" width="30" height="48" as="geometry" />
        </mxCell>
        <mxCell id="mxgNNjMldQ4FTRtb482u-40" value="" style="outlineConnect=0;dashed=0;verticalLabelPosition=bottom;verticalAlign=top;align=center;html=1;shape=mxgraph.aws3.user;shadow=1;glass=1;strokeColor=#A50040;opacity=50;fillColor=#d80073;fontColor=#ffffff;fontFamily=Courier New;" vertex="1" parent="1">
          <mxGeometry x="396" y="82" width="30" height="48" as="geometry" />
        </mxCell>
        <mxCell id="mxgNNjMldQ4FTRtb482u-41" value="" style="outlineConnect=0;dashed=0;verticalLabelPosition=bottom;verticalAlign=top;align=center;html=1;shape=mxgraph.aws3.user;gradientColor=none;shadow=1;glass=1;strokeColor=#000000;opacity=50;fillColor=#3474FC;fontFamily=Courier New;" vertex="1" parent="1">
          <mxGeometry x="351" y="-339.5" width="30" height="48" as="geometry" />
        </mxCell>
        <mxCell id="mxgNNjMldQ4FTRtb482u-42" value="" style="outlineConnect=0;dashed=0;verticalLabelPosition=bottom;verticalAlign=top;align=center;html=1;shape=mxgraph.aws3.user;shadow=1;glass=1;strokeColor=#A50040;opacity=50;fillColor=#d80073;fontColor=#ffffff;fontFamily=Courier New;" vertex="1" parent="1">
          <mxGeometry x="371" y="-339.5" width="30" height="48" as="geometry" />
        </mxCell>
        <mxCell id="mxgNNjMldQ4FTRtb482u-43" value="" style="outlineConnect=0;dashed=0;verticalLabelPosition=bottom;verticalAlign=top;align=center;html=1;shape=mxgraph.aws3.user;shadow=1;glass=1;strokeColor=#A50040;opacity=50;fillColor=#d80073;fontColor=#ffffff;fontFamily=Courier New;" vertex="1" parent="1">
          <mxGeometry x="391" y="-339.5" width="30" height="48" as="geometry" />
        </mxCell>
        <mxCell id="mxgNNjMldQ4FTRtb482u-44" value="" style="outlineConnect=0;dashed=0;verticalLabelPosition=bottom;verticalAlign=top;align=center;html=1;shape=mxgraph.aws3.user;shadow=1;glass=1;strokeColor=#A50040;opacity=50;fillColor=#d80073;fontColor=#ffffff;fontFamily=Courier New;" vertex="1" parent="1">
          <mxGeometry x="411" y="-339.5" width="30" height="48" as="geometry" />
        </mxCell>
        <mxCell id="mxgNNjMldQ4FTRtb482u-45" value="" style="outlineConnect=0;dashed=0;verticalLabelPosition=bottom;verticalAlign=top;align=center;html=1;shape=mxgraph.aws3.saml_token;fillColor=#ffe6cc;shadow=1;glass=1;strokeColor=#d79b00;opacity=50;fontFamily=Courier New;" vertex="1" parent="1">
          <mxGeometry x="694" y="258" width="69" height="72" as="geometry" />
        </mxCell>
        <mxCell id="mxgNNjMldQ4FTRtb482u-46" value="&lt;font style=&quot;font-size: 35px;&quot; color=&quot;#3474fc&quot;&gt;Threshold Signature&lt;/font&gt;" style="text;html=1;align=center;verticalAlign=middle;whiteSpace=wrap;rounded=1;shadow=1;glass=1;dashed=1;opacity=70;fillColor=#ffffff;fontFamily=Courier New;fontSize=35;" vertex="1" parent="1">
          <mxGeometry x="679" y="-449" width="270" height="130" as="geometry" />
        </mxCell>
        <mxCell id="mxgNNjMldQ4FTRtb482u-47" value="&lt;font style=&quot;font-size: 35px&quot; color=&quot;#3474fc&quot;&gt;m / n&lt;/font&gt;" style="text;html=1;align=center;verticalAlign=middle;whiteSpace=wrap;rounded=1;shadow=1;glass=1;dashed=1;opacity=70;fillColor=#ffffff;fontFamily=Courier New;fontSize=35;" vertex="1" parent="1">
          <mxGeometry x="-76" y="-43" width="126" height="59" as="geometry" />
        </mxCell>
      </root>
    </mxGraphModel>
  </diagram>
</mxfile>
